<svg width="216" height="216" version="1.1" xmlns="http://www.w3.org/2000/svg" desc="Created with imagetracer.js version 1.2.6" ><path fill="rgb(13,193,187)" stroke="rgb(13,193,187)" stroke-width="1" opacity="1" d="M 107.5 12 L 112 14.5 L 110.5 14 Q 106.7 13.7 107.5 12 Z " /><path fill="rgb(13,193,187)" stroke="rgb(13,193,187)" stroke-width="1" opacity="1" d="M 105.5 13 L 102.5 17 L 105.5 13 Z " /><path fill="rgb(13,193,187)" stroke="rgb(13,193,187)" stroke-width="1" opacity="1" d="M 112.5 16 L 130 37.5 L 125 33.5 L 112.5 16 Z " /><path fill="rgb(13,193,187)" stroke="rgb(13,193,187)" stroke-width="1" opacity="1" d="M 101.5 18 L 99 21.5 L 76.5 51 L 77 49.5 L 101.5 18 Z " /><path fill="rgb(13,193,187)" stroke="rgb(13,193,187)" stroke-width="1" opacity="1" d="M 108.5 28 Q 112.3 29.5 111 35 L 116 35.5 L 110 36 Q 110.9 29.7 108.5 28 Z " /><path fill="rgb(13,193,187)" stroke="rgb(13,193,187)" stroke-width="1" opacity="1" d="M 106.5 30 L 107 36 L 105 35.5 L 106.5 30 Z " /><path fill="rgb(13,193,187)" stroke="rgb(13,193,187)" stroke-width="1" opacity="1" d="M 101.5 35 L 104 35.5 L 101.5 36 L 101.5 35 Z " /><path fill="rgb(13,193,187)" stroke="rgb(13,193,187)" stroke-width="1" opacity="1" d="M 100.5 39 L 107 39 L 107 44.5 L 106 44.5 Q 108.3 37.3 100.5 40 L 100.5 39 Z " /><path fill="rgb(13,193,187)" stroke="rgb(13,193,187)" stroke-width="1" opacity="1" d="M 110 39 L 116 39.5 L 111 40 L 110.5 45 L 110 39 Z " /><path fill="rgb(13,193,187)" stroke="rgb(13,193,187)" stroke-width="1" opacity="1" d="M 130.5 39 L 132.5 42 L 130.5 39 Z " /><path fill="rgb(13,193,187)" stroke="rgb(13,193,187)" stroke-width="1" opacity="1" d="M 133.5 43 L 140 50.5 L 136 47.5 L 133.5 43 Z " /><path fill="rgb(13,193,187)" stroke="rgb(13,193,187)" stroke-width="1" opacity="1" d="M 32.5 68 L 42.5 79 Q 44.8 78.3 44 80.5 L 46 85.5 L 42.5 88 L 32 88 L 32.5 68 Z M 34 71 L 33 86 L 36 87 L 45 86 L 44 82 L 40 84 L 41 80 L 38 78 L 34 71 Z " /><path fill="rgb(13,193,187)" stroke="rgb(13,193,187)" stroke-width="1" opacity="1" d="M 38.5 80 L 39 83 L 36 82.5 L 38.5 80 Z " /><path fill="rgb(13,193,187)" stroke="rgb(13,193,187)" stroke-width="1" opacity="1" d="M 85 180 L 133 180.5 L 110.5 205 L 109 204.5 L 111 204 L 111 202 L 113 202 Q 111.9 199.3 114.5 200 L 123.5 189 L 126 187.5 L 131 181.5 L 110.5 181 L 107.5 182 L 106.5 181 L 88.5 181 L 87.5 184 L 85 180 Z " /><path fill="rgb(13,193,187)" stroke="rgb(13,193,187)" stroke-width="1" opacity="1" d="M 106.5 183 L 107 192 L 105 191.5 L 106.5 183 Z " /><path fill="rgb(13,193,187)" stroke="rgb(13,193,187)" stroke-width="1" opacity="1" d="M 110.5 183 L 112 191.5 L 110 192 L 110.5 183 Z " /><path fill="rgb(13,193,187)" stroke="rgb(13,193,187)" stroke-width="1" opacity="1" d="M 88.5 185 Q 90.8 184.3 90 186.5 L 106.5 204 L 108 204.5 L 106.5 205 Q 95.4 195.7 88.5 185 Z " /><path fill="rgb(13,193,187)" stroke="rgb(13,193,187)" stroke-width="1" opacity="1" d="M 103.5 192 L 108.5 198 L 113.5 192 L 114 193.5 L 109.5 199 L 106 198 L 103 193.5 L 103.5 192 Z " /><path fill="rgb(5,205,200)" stroke="rgb(5,205,200)" stroke-width="1" opacity="1" d="M 106.5 13 L 112 15.5 L 139 50.5 L 77.5 51 L 78 49.5 L 106.5 13 Z M 106 30 L 106 35 L 106 37 L 100 37 L 100 40 L 106 40 L 106 45 L 109 45 L 111 45 L 111 40 L 116 40 L 116 37 L 110 37 L 116 36 L 116 35 Q 109 37 111 31 L 110 31 L 106 30 Z M 102 35 L 102 36 L 104 36 L 102 35 Z " /><path fill="rgb(5,205,200)" stroke="rgb(5,205,200)" stroke-width="1" opacity="1" d="M 33.5 69 L 35.5 72 L 34 71.5 L 38 78 L 41 79.5 L 40 84 L 43.5 82 L 45 86 L 35.5 87 L 33 86 L 33 71.5 L 34 70.5 L 33.5 69 Z M 39 80 L 36 83 L 39 83 L 39 80 Z " /><path fill="rgb(5,205,200)" stroke="rgb(5,205,200)" stroke-width="1" opacity="1" d="M 86.5 181 L 88.5 181 L 106.5 181 L 109.5 182 L 110.5 181 L 130.5 181 L 126 186.5 L 124.5 189 L 122 190.5 L 114.5 200 L 109.5 204 L 107.5 204 L 95 192.5 L 90 185 Q 87.3 186.1 88 183.5 L 86.5 181 Z M 106 183 L 105 194 L 105 196 L 106 198 L 109 197 L 109 199 L 113 196 Q 110 192 111 184 L 110 184 L 106 183 Z " /><path fill="rgb(0,0,0)" stroke="rgb(0,0,0)" stroke-width="1" opacity="1" d="M 0 0 L 216 0 L 216 216 L 0 216 L 0 0 Z M 107 11 L 105 12 L 74 52 L 25 52 L 20 54 L 17 61 L 17 175 L 19 178 L 24 180 L 82 180 L 98 199 L 106 206 L 109 207 L 112 206 L 124 192 L 136 180 L 197 180 L 199 179 L 202 176 L 204 169 L 204 151 L 203 150 L 203 62 L 201 57 L 195 52 L 143 52 L 116 18 Q 114 12 107 11 Z " /><path fill="rgb(247,249,248)" stroke="rgb(247,249,248)" stroke-width="1" opacity="1" d="M 108.5 37 L 114 37.5 L 107.5 39 L 108.5 37 Z " /><path fill="rgb(247,249,248)" stroke="rgb(247,249,248)" stroke-width="1" opacity="1" d="M 35.5 66 L 36.5 68 L 35.5 66 Z " /><path fill="rgb(247,249,248)" stroke="rgb(247,249,248)" stroke-width="1" opacity="1" d="M 45.5 66 L 46 75.5 L 45 75.5 L 45.5 66 Z " /><path fill="rgb(247,249,248)" stroke="rgb(247,249,248)" stroke-width="1" opacity="1" d="M 53.5 66 L 54 74.5 L 53 74.5 L 53.5 66 Z " /><path fill="rgb(247,249,248)" stroke="rgb(247,249,248)" stroke-width="1" opacity="1" d="M 86.5 66 L 88.5 69 L 86.5 66 Z " /><path fill="rgb(247,249,248)" stroke="rgb(247,249,248)" stroke-width="1" opacity="1" d="M 67.5 67 L 67.5 70 L 62 68.5 L 64.5 68 Q 66 70.5 67.5 67 Z " /><path fill="rgb(247,249,248)" stroke="rgb(247,249,248)" stroke-width="1" opacity="1" d="M 69.5 68 L 71 69.5 L 70.5 72 Q 68.3 72.8 69 70.5 L 69.5 68 Z " /><path fill="rgb(247,249,248)" stroke="rgb(247,249,248)" stroke-width="1" opacity="1" d="M 134.5 68 L 135 69.5 L 133 70.5 L 134.5 68 Z " /><path fill="rgb(247,249,248)" stroke="rgb(247,249,248)" stroke-width="1" opacity="1" d="M 81.5 69 L 85 71.5 L 83.5 71 L 81.5 69 Z " /><path fill="rgb(247,249,248)" stroke="rgb(247,249,248)" stroke-width="1" opacity="1" d="M 113.5 69 L 115 71.5 L 114 71.5 L 113.5 69 Z " /><path fill="rgb(247,249,248)" stroke="rgb(247,249,248)" stroke-width="1" opacity="1" d="M 37.5 70 L 41 71.5 L 42.5 75 L 44 74.5 L 40.5 76 L 36 71.5 L 37.5 70 Z " /><path fill="rgb(247,249,248)" stroke="rgb(247,249,248)" stroke-width="1" opacity="1" d="M 73.5 72 L 74.5 74 L 73.5 72 Z " /><path fill="rgb(247,249,248)" stroke="rgb(247,249,248)" stroke-width="1" opacity="1" d="M 61.5 74 L 65 75.5 L 61 76.5 L 61.5 74 Z " /><path fill="rgb(247,249,248)" stroke="rgb(247,249,248)" stroke-width="1" opacity="1" d="M 73.5 75 L 75 77.5 L 74 77.5 L 73.5 75 Z " /><path fill="rgb(247,249,248)" stroke="rgb(247,249,248)" stroke-width="1" opacity="1" d="M 131.5 75 L 130.5 77 L 131.5 75 Z " /><path fill="rgb(247,249,248)" stroke="rgb(247,249,248)" stroke-width="1" opacity="1" d="M 67.5 76 L 67.5 78 Q 69.8 77.3 69 79.5 L 67.5 79 Q 65.3 79.8 66 77.5 L 67.5 76 Z " /><path fill="rgb(247,249,248)" stroke="rgb(247,249,248)" stroke-width="1" opacity="1" d="M 44.5 77 L 43.5 79 L 44.5 77 Z " /><path fill="rgb(247,249,248)" stroke="rgb(247,249,248)" stroke-width="1" opacity="1" d="M 119.5 77 L 120.5 79 L 119.5 77 Z " /><path fill="rgb(247,249,248)" stroke="rgb(247,249,248)" stroke-width="1" opacity="1" d="M 140.5 77 L 143 78.5 L 141.5 79 L 140.5 77 Z " /><path fill="rgb(247,249,248)" stroke="rgb(247,249,248)" stroke-width="1" opacity="1" d="M 116.5 83 L 117.5 85 L 116.5 83 Z " /><path fill="rgb(247,249,248)" stroke="rgb(247,249,248)" stroke-width="1" opacity="1" d="M 144.5 83 L 145.5 85 Q 142.7 85.7 144.5 83 Z " /><path fill="rgb(247,249,248)" stroke="rgb(247,249,248)" stroke-width="1" opacity="1" d="M 89.5 86 Q 91.8 85.3 91 87.5 L 91.5 89 Q 89.3 89.8 90 87.5 L 89.5 86 Z " /><path fill="rgb(247,249,248)" stroke="rgb(247,249,248)" stroke-width="1" opacity="1" d="M 145.5 86 L 146.5 88 L 145.5 86 Z " /><path fill="rgb(247,249,248)" stroke="rgb(247,249,248)" stroke-width="1" opacity="1" d="M 105.5 87 L 106.5 89 L 105.5 87 Z " /><path fill="rgb(247,249,248)" stroke="rgb(247,249,248)" stroke-width="1" opacity="1" d="M 138 87 Q 141 86 140 89 L 138 89.5 L 138.5 91 L 137 90.5 L 136.5 140 L 136 89 Q 139 90 138 87 Z " /><path fill="rgb(247,249,248)" stroke="rgb(247,249,248)" stroke-width="1" opacity="1" d="M 176.5 89 Q 178.8 88.3 178 90.5 L 175 90.5 L 176.5 89 Z " /><path fill="rgb(247,249,248)" stroke="rgb(247,249,248)" stroke-width="1" opacity="1" d="M 103.5 91 L 104 93 L 101 92.5 L 103.5 91 Z " /><path fill="rgb(247,249,248)" stroke="rgb(247,249,248)" stroke-width="1" opacity="1" d="M 177.5 92 L 178 139.5 L 177 139.5 L 177.5 92 Z " /><path fill="rgb(247,249,248)" stroke="rgb(247,249,248)" stroke-width="1" opacity="1" d="M 129.5 93 L 130 95.5 L 129 95.5 L 129.5 93 Z " /><path fill="rgb(247,249,248)" stroke="rgb(247,249,248)" stroke-width="1" opacity="1" d="M 35.5 94 L 41 94.5 L 35.5 95 L 35.5 94 Z " /><path fill="rgb(247,249,248)" stroke="rgb(247,249,248)" stroke-width="1" opacity="1" d="M 43.5 95 Q 46.3 96.3 44 97.5 L 43.5 99 L 43 97.5 L 43.5 95 Z " /><path fill="rgb(247,249,248)" stroke="rgb(247,249,248)" stroke-width="1" opacity="1" d="M 45.5 98 L 46 109.5 L 45 109.5 L 45.5 98 Z " /><path fill="rgb(247,249,248)" stroke="rgb(247,249,248)" stroke-width="1" opacity="1" d="M 54.5 99 L 56 99.5 L 53.5 101 L 54.5 99 Z " /><path fill="rgb(247,249,248)" stroke="rgb(247,249,248)" stroke-width="1" opacity="1" d="M 65.5 99 L 64.5 101 L 62 100.5 L 65.5 99 Z " /><path fill="rgb(247,249,248)" stroke="rgb(247,249,248)" stroke-width="1" opacity="1" d="M 73.5 102 L 69.5 107 L 73.5 102 Z " /><path fill="rgb(247,249,248)" stroke="rgb(247,249,248)" stroke-width="1" opacity="1" d="M 97.5 103 L 98 104.5 L 96.5 107 L 95 104.5 L 97 104.5 L 97.5 103 Z " /><path fill="rgb(247,249,248)" stroke="rgb(247,249,248)" stroke-width="1" opacity="1" d="M 107.5 106 L 108 140 L 97 139.5 L 107 139 L 107.5 106 Z " /><path fill="rgb(247,249,248)" stroke="rgb(247,249,248)" stroke-width="1" opacity="1" d="M 156.5 106 L 159 106.5 L 156.5 107 L 156.5 106 Z " /><path fill="rgb(247,249,248)" stroke="rgb(247,249,248)" stroke-width="1" opacity="1" d="M 166.5 107 L 165.5 109 L 166.5 107 Z " /><path fill="rgb(247,249,248)" stroke="rgb(247,249,248)" stroke-width="1" opacity="1" d="M 148.5 109 L 148 110.5 L 147.5 112 L 147 110.5 L 148.5 109 Z " /><path fill="rgb(247,249,248)" stroke="rgb(247,249,248)" stroke-width="1" opacity="1" d="M 53.5 110 L 60 110.5 L 53.5 111 L 53.5 110 Z " /><path fill="rgb(247,249,248)" stroke="rgb(247,249,248)" stroke-width="1" opacity="1" d="M 44.5 111 L 44 112.5 L 43.5 140 L 43 112.5 L 44.5 111 Z " /><path fill="rgb(247,249,248)" stroke="rgb(247,249,248)" stroke-width="1" opacity="1" d="M 150.5 114 L 149.5 116 L 150.5 114 Z " /><path fill="rgb(247,249,248)" stroke="rgb(247,249,248)" stroke-width="1" opacity="1" d="M 163.5 115 L 164.5 117 L 163.5 115 Z " /><path fill="rgb(247,249,248)" stroke="rgb(247,249,248)" stroke-width="1" opacity="1" d="M 152.5 118 Q 154.8 117.3 154 119.5 L 152.5 118 Z " /><path fill="rgb(247,249,248)" stroke="rgb(247,249,248)" stroke-width="1" opacity="1" d="M 179.5 131 L 180 134.5 L 179 134.5 L 179.5 131 Z " /><path fill="rgb(247,249,248)" stroke="rgb(247,249,248)" stroke-width="1" opacity="1" d="M 32.5 139 L 42 139.5 L 32.5 140 L 32.5 139 Z " /><path fill="rgb(247,249,248)" stroke="rgb(247,249,248)" stroke-width="1" opacity="1" d="M 127.5 139 L 135 139.5 L 127.5 140 L 127.5 139 Z " /><path fill="rgb(247,249,248)" stroke="rgb(247,249,248)" stroke-width="1" opacity="1" d="M 179.5 139 L 187 139.5 L 179.5 140 L 179.5 139 Z " /><path fill="rgb(247,249,248)" stroke="rgb(247,249,248)" stroke-width="1" opacity="1" d="M 37 153 Q 41.1 151.7 40 155 Q 35.9 156.3 37 153 Z " /><path fill="rgb(247,249,248)" stroke="rgb(247,249,248)" stroke-width="1" opacity="1" d="M 86 153 L 89 153.5 L 86 155 L 86 153 Z " /><path fill="rgb(247,249,248)" stroke="rgb(247,249,248)" stroke-width="1" opacity="1" d="M 183 153 L 186 153.5 L 183 155 L 183 153 Z " /><path fill="rgb(247,249,248)" stroke="rgb(247,249,248)" stroke-width="1" opacity="1" d="M 42.5 154 L 43.5 156 L 42.5 154 Z " /><path fill="rgb(247,249,248)" stroke="rgb(247,249,248)" stroke-width="1" opacity="1" d="M 127.5 154 Q 130.3 155.3 129 160.5 L 129 162.5 Q 130.8 169.3 127.5 171 L 127.5 154 Z " /><path fill="rgb(247,249,248)" stroke="rgb(247,249,248)" stroke-width="1" opacity="1" d="M 35.5 155 L 34.5 157 L 35.5 155 Z " /><path fill="rgb(247,249,248)" stroke="rgb(247,249,248)" stroke-width="1" opacity="1" d="M 149 155 L 151 155.5 L 150 159 L 152 158.5 L 151.5 157 L 153 158.5 L 152.5 161 L 151 160.5 L 151 170.5 L 149 171 L 149 155 Z " /><path fill="rgb(247,249,248)" stroke="rgb(247,249,248)" stroke-width="1" opacity="1" d="M 163.5 159 L 165 159.5 L 161.5 161 L 161.5 160 L 163.5 159 Z " /><path fill="rgb(247,249,248)" stroke="rgb(247,249,248)" stroke-width="1" opacity="1" d="M 33.5 160 L 34.5 162 L 33.5 160 Z " /><path fill="rgb(247,249,248)" stroke="rgb(247,249,248)" stroke-width="1" opacity="1" d="M 85.5 161 L 86 163 L 84 162.5 L 85.5 161 Z " /><path fill="rgb(247,249,248)" stroke="rgb(247,249,248)" stroke-width="1" opacity="1" d="M 41.5 162 L 40.5 164 L 41.5 162 Z " /><path fill="rgb(247,249,248)" stroke="rgb(247,249,248)" stroke-width="1" opacity="1" d="M 187.5 162 L 186.5 164 L 187.5 162 Z " /><path fill="rgb(247,249,248)" stroke="rgb(247,249,248)" stroke-width="1" opacity="1" d="M 91.5 163 L 91.5 165 L 93 165.5 L 92 167.5 L 92.5 169 L 90.5 170 L 91 168.5 L 90 164.5 L 91.5 163 Z " /><path fill="rgb(247,249,248)" stroke="rgb(247,249,248)" stroke-width="1" opacity="1" d="M 62 164 L 64 164.5 L 64 171 L 62 170.5 L 62 164 Z " /><path fill="rgb(247,249,248)" stroke="rgb(247,249,248)" stroke-width="1" opacity="1" d="M 156.5 164 L 160 165.5 L 156.5 167 L 156.5 164 Z " /><path fill="rgb(247,249,248)" stroke="rgb(247,249,248)" stroke-width="1" opacity="1" d="M 33.5 168 L 34.5 170 L 32 169.5 L 33.5 168 Z " /><path fill="rgb(247,249,248)" stroke="rgb(247,249,248)" stroke-width="1" opacity="1" d="M 43.5 169 L 42.5 171 L 43.5 169 Z " /><path fill="rgb(247,249,248)" stroke="rgb(247,249,248)" stroke-width="1" opacity="1" d="M 178.5 169 L 181 169.5 Q 178.9 172.8 178.5 169 Z " /><path fill="rgb(247,249,248)" stroke="rgb(247,249,248)" stroke-width="1" opacity="1" d="M 36.5 170 Q 41.3 168.7 40 172 Q 36.2 172.8 36.5 170 Z " /><path fill="rgb(247,249,248)" stroke="rgb(247,249,248)" stroke-width="1" opacity="1" d="M 85 170 Q 90.2 168.3 89 172 Q 83.8 173.7 85 170 Z " /><path fill="rgb(247,249,248)" stroke="rgb(247,249,248)" stroke-width="1" opacity="1" d="M 182 170 Q 187.2 168.3 186 172 Q 180.8 173.7 182 170 Z " /><path fill="rgb(247,249,248)" stroke="rgb(247,249,248)" stroke-width="1" opacity="1" d="M 105.5 193 L 108.5 194 L 110 193.5 L 109.5 196 L 107.5 196 L 105.5 193 Z " /><path fill="rgb(251,253,253)" stroke="rgb(251,253,253)" stroke-width="1" opacity="1" d="M 108.5 31 L 109 36.5 Q 107.5 39.5 101.5 38 L 101.5 37 L 108 37 L 108.5 31 Z " /><path fill="rgb(251,253,253)" stroke="rgb(251,253,253)" stroke-width="1" opacity="1" d="M 108.5 39 L 109 44.5 L 108 44.5 L 108.5 39 Z " /><path fill="rgb(251,253,253)" stroke="rgb(251,253,253)" stroke-width="1" opacity="1" d="M 32.5 65 L 46 65.5 L 45 66.5 L 45 76.5 L 43.5 78 L 41 76.5 L 43 75.5 Q 41.8 72.8 40.5 75 L 33 67.5 L 32.5 65 Z M 40 70 L 38 72 L 41 74 L 40 70 Z " /><path fill="rgb(251,253,253)" stroke="rgb(251,253,253)" stroke-width="1" opacity="1" d="M 53.5 65 L 61.5 65 L 73 71.5 Q 79.5 77 79 89.5 Q 77 101.5 68.5 107 Q 63.4 111.7 53 110 L 53 101.5 L 54.5 100 L 56.5 99 L 58.5 100 Q 64.3 98.8 67 94.5 Q 70 91.5 69 84.5 L 63.5 77 L 54 76 L 54 66.5 L 53.5 65 Z M 63 68 L 63 69 L 65 69 L 63 68 Z M 67 68 L 65 70 L 68 70 L 67 68 Z M 70 70 Q 68 73 71 72 L 70 70 Z M 62 74 Q 62 78 64 75 L 62 74 Z M 67 77 L 66 79 L 69 80 L 69 78 L 67 77 Z M 63 100 L 63 101 L 65 101 L 63 100 Z " /><path fill="rgb(251,253,253)" stroke="rgb(251,253,253)" stroke-width="1" opacity="1" d="M 78 65 L 88.5 65 L 89 66.5 L 101 93 Q 105.5 94.8 104 89.5 L 116.5 65 L 127 65.5 L 107 106.5 L 107 139 L 97.5 139 L 97 138.5 L 97 105.5 L 95 103.5 L 78 65 Z M 90 86 L 90 88 Q 89 90 92 89 L 91 88 Q 92 85 90 86 Z " /><path fill="rgb(251,253,253)" stroke="rgb(251,253,253)" stroke-width="1" opacity="1" d="M 134 65 L 139 65 L 139 66.5 L 156 107 Q 160.1 108.7 159 104.5 L 176.5 65 L 187.5 65 L 188 65.5 L 188 139.5 L 186.5 139 Q 180.3 137.2 178.5 140 L 178 89 L 175 90.5 L 160 128 Q 155.4 129.3 154 126.5 L 142 96.5 L 137.5 89 L 136 89.5 L 136 139.5 L 134.5 139 Q 128.3 137.2 126.5 140 L 126 82.5 L 134 65 Z M 145 83 Q 143 86 146 85 L 145 83 Z M 138 87 Q 137 90 140 89 Q 141 86 138 87 Z M 130 93 L 129 96 L 130 96 L 130 93 Z M 153 118 L 154 120 Q 155 117 153 118 Z M 180 131 L 179 135 L 180 135 L 180 131 Z " /><path fill="rgb(251,253,253)" stroke="rgb(251,253,253)" stroke-width="1" opacity="1" d="M 33 95 L 42.5 95 L 45 97.5 L 45 110.5 L 43 112.5 L 42.5 140 L 41.5 139 L 32 139 L 32 97.5 L 33 95 Z " /><path fill="rgb(251,253,253)" stroke="rgb(251,253,253)" stroke-width="1" opacity="1" d="M 35.5 154 L 37 154.5 L 34 156.5 Q 33.3 160.8 36 161.5 L 33 159.5 Q 32.3 154.8 35.5 154 Z " /><path fill="rgb(251,253,253)" stroke="rgb(251,253,253)" stroke-width="1" opacity="1" d="M 40.5 154 L 43 155.5 L 41.5 155 L 40.5 154 Z " /><path fill="rgb(251,253,253)" stroke="rgb(251,253,253)" stroke-width="1" opacity="1" d="M 57.5 154 L 59 156.5 L 57 155.5 L 57.5 154 Z " /><path fill="rgb(251,253,253)" stroke="rgb(251,253,253)" stroke-width="1" opacity="1" d="M 69.5 154 L 68 156.5 L 66.5 159 L 67 157.5 L 69.5 154 Z " /><path fill="rgb(251,253,253)" stroke="rgb(251,253,253)" stroke-width="1" opacity="1" d="M 84.5 154 L 86 154.5 L 83 156.5 Q 81.1 161.9 84.5 161 L 84.5 162 L 82 160.5 Q 81 155 84.5 154 Z " /><path fill="rgb(251,253,253)" stroke="rgb(251,253,253)" stroke-width="1" opacity="1" d="M 88.5 154 L 92 155.5 L 90.5 155 Q 87.5 155.5 88.5 154 Z " /><path fill="rgb(251,253,253)" stroke="rgb(251,253,253)" stroke-width="1" opacity="1" d="M 103.5 154 L 107 154.5 L 103.5 155 L 103.5 154 Z " /><path fill="rgb(251,253,253)" stroke="rgb(251,253,253)" stroke-width="1" opacity="1" d="M 108.5 154 L 116 154.5 L 110 155 L 109.5 171 L 109 155.5 L 108.5 154 Z " /><path fill="rgb(251,253,253)" stroke="rgb(251,253,253)" stroke-width="1" opacity="1" d="M 128.5 154 L 138 154.5 L 128.5 155 L 128.5 154 Z " /><path fill="rgb(251,253,253)" stroke="rgb(251,253,253)" stroke-width="1" opacity="1" d="M 165.5 154 L 166 170.5 L 165 170.5 L 165 159.5 L 163.5 159 L 162 159.5 L 165.5 154 Z " /><path fill="rgb(251,253,253)" stroke="rgb(251,253,253)" stroke-width="1" opacity="1" d="M 181.5 154 L 183 154.5 L 180 156.5 Q 178.1 161.9 181.5 161 L 181.5 162 L 179 160.5 Q 178 155 181.5 154 Z " /><path fill="rgb(251,253,253)" stroke="rgb(251,253,253)" stroke-width="1" opacity="1" d="M 185.5 154 L 189 155.5 L 187.5 155 Q 184.5 155.5 185.5 154 Z " /><path fill="rgb(251,253,253)" stroke="rgb(251,253,253)" stroke-width="1" opacity="1" d="M 150.5 156 L 157.5 166 L 159 166.5 L 157 167.5 L 151.5 159 Q 148.4 159.7 150.5 156 Z " /><path fill="rgb(251,253,253)" stroke="rgb(251,253,253)" stroke-width="1" opacity="1" d="M 59.5 158 L 62.5 162 L 65.5 160 L 64 162.5 Q 64.7 165.1 62 164 L 59.5 158 Z " /><path fill="rgb(251,253,253)" stroke="rgb(251,253,253)" stroke-width="1" opacity="1" d="M 128.5 161 L 136 162.5 L 129.5 163 L 128.5 161 Z " /><path fill="rgb(251,253,253)" stroke="rgb(251,253,253)" stroke-width="1" opacity="1" d="M 161.5 161 L 161 162.5 L 159.5 165 L 160 163.5 L 161.5 161 Z " /><path fill="rgb(251,253,253)" stroke="rgb(251,253,253)" stroke-width="1" opacity="1" d="M 37.5 162 Q 42.6 161.4 44 164.5 Q 45 170 41.5 171 L 40 170.5 L 43 168.5 Q 44.9 163.1 41.5 164 L 37.5 163 L 37.5 162 Z " /><path fill="rgb(251,253,253)" stroke="rgb(251,253,253)" stroke-width="1" opacity="1" d="M 86.5 162 L 92 164.5 L 90.5 164 L 86.5 163 L 86.5 162 Z " /><path fill="rgb(251,253,253)" stroke="rgb(251,253,253)" stroke-width="1" opacity="1" d="M 183.5 162 Q 188.6 161.4 190 164.5 Q 191 170 187.5 171 L 186 170.5 L 189 168.5 Q 189.8 163.8 186.5 163 Q 182.5 163.8 183.5 162 Z " /><path fill="rgb(251,253,253)" stroke="rgb(251,253,253)" stroke-width="1" opacity="1" d="M 33.5 169 L 36 170.5 L 34.5 171 L 33.5 169 Z " /><path fill="rgb(251,253,253)" stroke="rgb(251,253,253)" stroke-width="1" opacity="1" d="M 81.5 169 L 85 170.5 L 83.5 171 L 81.5 169 Z " /><path fill="rgb(251,253,253)" stroke="rgb(251,253,253)" stroke-width="1" opacity="1" d="M 91.5 169 L 90.5 171 L 89 170.5 L 91.5 169 Z " /><path fill="rgb(251,253,253)" stroke="rgb(251,253,253)" stroke-width="1" opacity="1" d="M 179.5 169 L 182 170.5 L 180.5 171 L 179.5 169 Z " /><path fill="rgb(251,253,253)" stroke="rgb(251,253,253)" stroke-width="1" opacity="1" d="M 128.5 170 L 132 170.5 L 128.5 171 L 128.5 170 Z " /><path fill="rgb(251,253,253)" stroke="rgb(251,253,253)" stroke-width="1" opacity="1" d="M 133.5 170 L 138 170.5 L 133.5 171 L 133.5 170 Z " /><path fill="rgb(251,253,253)" stroke="rgb(251,253,253)" stroke-width="1" opacity="1" d="M 108.5 183 L 109.5 194 L 111.5 193 L 110.5 195 Q 108.3 194.3 109 196.5 L 108 196.5 L 107 194.5 L 108 193.5 L 108.5 183 Z " /><path fill="rgb(95,131,143)" stroke="rgb(95,131,143)" stroke-width="1" opacity="1" d="M 112.5 15 L 113.5 17 L 112.5 15 Z " /><path fill="rgb(95,131,143)" stroke="rgb(95,131,143)" stroke-width="1" opacity="1" d="M 116.5 20 L 117.5 22 L 116.5 20 Z " /><path fill="rgb(95,131,143)" stroke="rgb(95,131,143)" stroke-width="1" opacity="1" d="M 123.5 29 L 124.5 31 L 123.5 29 Z " /><path fill="rgb(95,131,143)" stroke="rgb(95,131,143)" stroke-width="1" opacity="1" d="M 79.5 51 L 135 51.5 L 79.5 52 L 79.5 51 Z " /><path fill="rgb(95,131,143)" stroke="rgb(95,131,143)" stroke-width="1" opacity="1" d="M 136.5 51 L 140 51.5 L 136.5 52 L 136.5 51 Z " /><path fill="rgb(95,131,143)" stroke="rgb(95,131,143)" stroke-width="1" opacity="1" d="M 31.5 64 L 32 66.5 L 31 66.5 L 31.5 64 Z " /><path fill="rgb(95,131,143)" stroke="rgb(95,131,143)" stroke-width="1" opacity="1" d="M 46.5 64 L 47 75.5 L 46 75.5 L 46.5 64 Z " /><path fill="rgb(95,131,143)" stroke="rgb(95,131,143)" stroke-width="1" opacity="1" d="M 52.5 64 L 53 74.5 L 52 74.5 L 52.5 64 Z " /><path fill="rgb(95,131,143)" stroke="rgb(95,131,143)" stroke-width="1" opacity="1" d="M 69.5 67 L 70.5 69 L 69.5 67 Z " /><path fill="rgb(95,131,143)" stroke="rgb(95,131,143)" stroke-width="1" opacity="1" d="M 74.5 72 L 75.5 74 L 74.5 72 Z " /><path fill="rgb(95,131,143)" stroke="rgb(95,131,143)" stroke-width="1" opacity="1" d="M 63.5 78 L 66.5 82 L 63.5 78 Z " /><path fill="rgb(95,131,143)" stroke="rgb(95,131,143)" stroke-width="1" opacity="1" d="M 79.5 82 L 80 86.5 L 79 86.5 L 79.5 82 Z " /><path fill="rgb(95,131,143)" stroke="rgb(95,131,143)" stroke-width="1" opacity="1" d="M 79.5 88 L 80 91.5 L 79 91.5 L 79.5 88 Z " /><path fill="rgb(95,131,143)" stroke="rgb(95,131,143)" stroke-width="1" opacity="1" d="M 101.5 90 L 102.5 92 L 101.5 90 Z " /><path fill="rgb(95,131,143)" stroke="rgb(95,131,143)" stroke-width="1" opacity="1" d="M 137.5 91 Q 140.3 92.3 138 93.5 L 138 139.5 L 136.5 141 L 125 140.5 L 137 140 L 137.5 91 Z " /><path fill="rgb(95,131,143)" stroke="rgb(95,131,143)" stroke-width="1" opacity="1" d="M 176.5 91 L 177 93 L 175 92.5 L 176.5 91 Z " /><path fill="rgb(95,131,143)" stroke="rgb(95,131,143)" stroke-width="1" opacity="1" d="M 35.5 93 L 40 93.5 L 35.5 94 L 35.5 93 Z " /><path fill="rgb(95,131,143)" stroke="rgb(95,131,143)" stroke-width="1" opacity="1" d="M 66.5 93 L 65.5 95 L 66.5 93 Z " /><path fill="rgb(95,131,143)" stroke="rgb(95,131,143)" stroke-width="1" opacity="1" d="M 33.5 94 L 32.5 96 L 33.5 94 Z " /><path fill="rgb(95,131,143)" stroke="rgb(95,131,143)" stroke-width="1" opacity="1" d="M 43.5 94 L 45.5 97 L 43.5 94 Z " /><path fill="rgb(95,131,143)" stroke="rgb(95,131,143)" stroke-width="1" opacity="1" d="M 31.5 97 L 32 140 L 44 140.5 L 32.5 141 L 31 139.5 L 31.5 97 Z " /><path fill="rgb(95,131,143)" stroke="rgb(95,131,143)" stroke-width="1" opacity="1" d="M 46.5 98 L 47 109.5 L 46 109.5 L 46.5 98 Z " /><path fill="rgb(95,131,143)" stroke="rgb(95,131,143)" stroke-width="1" opacity="1" d="M 55.5 98 L 60 98.5 L 55.5 99 L 55.5 98 Z " /><path fill="rgb(95,131,143)" stroke="rgb(95,131,143)" stroke-width="1" opacity="1" d="M 53.5 99 L 53 100.5 L 53 111 L 59.5 111 L 59.5 112 Q 53.5 113.5 52 110.5 L 52 100.5 L 53.5 99 Z " /><path fill="rgb(95,131,143)" stroke="rgb(95,131,143)" stroke-width="1" opacity="1" d="M 74.5 102 L 73.5 104 L 74.5 102 Z " /><path fill="rgb(95,131,143)" stroke="rgb(95,131,143)" stroke-width="1" opacity="1" d="M 156.5 104 L 157.5 106 L 156.5 104 Z " /><path fill="rgb(95,131,143)" stroke="rgb(95,131,143)" stroke-width="1" opacity="1" d="M 71.5 105 L 69.5 108 L 71.5 105 Z " /><path fill="rgb(95,131,143)" stroke="rgb(95,131,143)" stroke-width="1" opacity="1" d="M 108.5 106 L 109 139.5 L 107.5 141 L 96.5 141 L 96.5 140 L 108 140 L 108.5 106 Z " /><path fill="rgb(95,131,143)" stroke="rgb(95,131,143)" stroke-width="1" opacity="1" d="M 45.5 111 L 45 112.5 L 44.5 114 L 44 112.5 L 45.5 111 Z " /><path fill="rgb(95,131,143)" stroke="rgb(95,131,143)" stroke-width="1" opacity="1" d="M 153.5 127 L 160 128.5 L 154.5 129 L 153.5 127 Z " /><path fill="rgb(95,131,143)" stroke="rgb(95,131,143)" stroke-width="1" opacity="1" d="M 177.5 140 L 189 140.5 L 177.5 141 L 177.5 140 Z " /><path fill="rgb(95,131,143)" stroke="rgb(95,131,143)" stroke-width="1" opacity="1" d="M 37.5 152 L 40 152.5 L 37.5 153 L 37.5 152 Z " /><path fill="rgb(95,131,143)" stroke="rgb(95,131,143)" stroke-width="1" opacity="1" d="M 86.5 152 L 89 152.5 L 86.5 153 L 86.5 152 Z " /><path fill="rgb(95,131,143)" stroke="rgb(95,131,143)" stroke-width="1" opacity="1" d="M 183.5 152 L 186 152.5 L 183.5 153 L 183.5 152 Z " /><path fill="rgb(95,131,143)" stroke="rgb(95,131,143)" stroke-width="1" opacity="1" d="M 83.5 153 L 81.5 156 L 83.5 153 Z " /><path fill="rgb(95,131,143)" stroke="rgb(95,131,143)" stroke-width="1" opacity="1" d="M 90.5 153 L 93 154.5 L 91.5 154 L 90.5 153 Z " /><path fill="rgb(95,131,143)" stroke="rgb(95,131,143)" stroke-width="1" opacity="1" d="M 102.5 153 L 103 155 Q 107.6 153.8 109 156.5 L 109 171.5 L 110 172.5 L 108 171.5 L 108 156.5 L 107.5 156 L 102 156 L 102.5 153 Z " /><path fill="rgb(95,131,143)" stroke="rgb(95,131,143)" stroke-width="1" opacity="1" d="M 117.5 153 L 118 154.5 Q 116.6 157.3 112 156 L 111.5 171 L 111 155 L 117 155 L 117.5 153 Z " /><path fill="rgb(95,131,143)" stroke="rgb(95,131,143)" stroke-width="1" opacity="1" d="M 126.5 153 L 127 171.5 L 126 171.5 L 126.5 153 Z " /><path fill="rgb(95,131,143)" stroke="rgb(95,131,143)" stroke-width="1" opacity="1" d="M 138.5 153 L 139 156 L 130 156 L 130 160.5 L 129 160.5 Q 128 156 130.5 155 Q 138.6 156.8 138.5 153 Z " /><path fill="rgb(95,131,143)" stroke="rgb(95,131,143)" stroke-width="1" opacity="1" d="M 148.5 153 L 149 171.5 L 148 171.5 L 148.5 153 Z " /><path fill="rgb(95,131,143)" stroke="rgb(95,131,143)" stroke-width="1" opacity="1" d="M 180.5 153 L 178.5 156 L 180.5 153 Z " /><path fill="rgb(95,131,143)" stroke="rgb(95,131,143)" stroke-width="1" opacity="1" d="M 44.5 154 L 45 155.5 L 43 156.5 L 44.5 154 Z " /><path fill="rgb(95,131,143)" stroke="rgb(95,131,143)" stroke-width="1" opacity="1" d="M 164.5 154 L 163.5 156 L 164.5 154 Z " /><path fill="rgb(95,131,143)" stroke="rgb(95,131,143)" stroke-width="1" opacity="1" d="M 37.5 155 Q 41.3 154.3 42 156.5 L 40.5 156 Q 36.5 156.8 37.5 155 Z " /><path fill="rgb(95,131,143)" stroke="rgb(95,131,143)" stroke-width="1" opacity="1" d="M 85.5 155 L 89 155.5 L 85.5 156 L 85.5 155 Z " /><path fill="rgb(95,131,143)" stroke="rgb(95,131,143)" stroke-width="1" opacity="1" d="M 151.5 155 L 152.5 157 L 151.5 155 Z " /><path fill="rgb(95,131,143)" stroke="rgb(95,131,143)" stroke-width="1" opacity="1" d="M 182.5 155 L 186 155.5 L 181.5 157 L 182.5 155 Z " /><path fill="rgb(95,131,143)" stroke="rgb(95,131,143)" stroke-width="1" opacity="1" d="M 190.5 155 L 189.5 157 L 190.5 155 Z " /><path fill="rgb(95,131,143)" stroke="rgb(95,131,143)" stroke-width="1" opacity="1" d="M 56.5 156 L 57.5 158 L 56.5 156 Z " /><path fill="rgb(95,131,143)" stroke="rgb(95,131,143)" stroke-width="1" opacity="1" d="M 69.5 156 L 68.5 158 L 69.5 156 Z " /><path fill="rgb(95,131,143)" stroke="rgb(95,131,143)" stroke-width="1" opacity="1" d="M 60.5 157 L 61.5 159 L 60.5 157 Z " /><path fill="rgb(95,131,143)" stroke="rgb(95,131,143)" stroke-width="1" opacity="1" d="M 162.5 157 L 161.5 159 L 162.5 157 Z " /><path fill="rgb(95,131,143)" stroke="rgb(95,131,143)" stroke-width="1" opacity="1" d="M 153.5 158 L 154.5 160 L 153.5 158 Z " /><path fill="rgb(95,131,143)" stroke="rgb(95,131,143)" stroke-width="1" opacity="1" d="M 180.5 158 L 184 160.5 L 182.5 161 L 180.5 158 Z " /><path fill="rgb(95,131,143)" stroke="rgb(95,131,143)" stroke-width="1" opacity="1" d="M 35.5 159 L 38 160.5 L 36.5 161 L 35.5 159 Z " /><path fill="rgb(95,131,143)" stroke="rgb(95,131,143)" stroke-width="1" opacity="1" d="M 64.5 159 L 63.5 161 L 62 160.5 L 64.5 159 Z " /><path fill="rgb(95,131,143)" stroke="rgb(95,131,143)" stroke-width="1" opacity="1" d="M 160.5 160 L 160 161.5 L 157.5 165 L 156.5 163 Q 157.8 165.3 159 162.5 L 160.5 160 Z " /><path fill="rgb(95,131,143)" stroke="rgb(95,131,143)" stroke-width="1" opacity="1" d="M 59.5 161 L 60.5 163 L 59.5 161 Z " /><path fill="rgb(95,131,143)" stroke="rgb(95,131,143)" stroke-width="1" opacity="1" d="M 81.5 161 L 82.5 163 L 81.5 161 Z " /><path fill="rgb(95,131,143)" stroke="rgb(95,131,143)" stroke-width="1" opacity="1" d="M 137.5 161 L 138 164 L 136 163.5 L 137.5 161 Z " /><path fill="rgb(95,131,143)" stroke="rgb(95,131,143)" stroke-width="1" opacity="1" d="M 151 161 L 153 161.5 L 152 162.5 L 151.5 172 L 151 161 Z " /><path fill="rgb(95,131,143)" stroke="rgb(95,131,143)" stroke-width="1" opacity="1" d="M 163.5 161 L 161.5 164 L 163.5 161 Z " /><path fill="rgb(95,131,143)" stroke="rgb(95,131,143)" stroke-width="1" opacity="1" d="M 34.5 162 L 38 163.5 L 35.5 164 L 34.5 162 Z " /><path fill="rgb(95,131,143)" stroke="rgb(95,131,143)" stroke-width="1" opacity="1" d="M 43.5 162 L 44.5 164 L 43.5 162 Z " /><path fill="rgb(95,131,143)" stroke="rgb(95,131,143)" stroke-width="1" opacity="1" d="M 91.5 162 Q 95 163 94 168.5 L 93 168.5 Q 93.6 163 91.5 162 Z " /><path fill="rgb(95,131,143)" stroke="rgb(95,131,143)" stroke-width="1" opacity="1" d="M 180.5 162 L 184 163.5 L 181.5 164 L 180.5 162 Z " /><path fill="rgb(95,131,143)" stroke="rgb(95,131,143)" stroke-width="1" opacity="1" d="M 130.5 163 L 133 163.5 L 130 164 L 130 169 L 138.5 169 L 139.5 171 L 138.5 170 L 130.5 170 L 129 168.5 Q 128 164 130.5 163 Z " /><path fill="rgb(95,131,143)" stroke="rgb(95,131,143)" stroke-width="1" opacity="1" d="M 61.5 164 L 62 171.5 L 61 171.5 L 61.5 164 Z " /><path fill="rgb(95,131,143)" stroke="rgb(95,131,143)" stroke-width="1" opacity="1" d="M 64.5 164 L 65 171.5 L 63 172.5 L 64.5 164 Z " /><path fill="rgb(95,131,143)" stroke="rgb(95,131,143)" stroke-width="1" opacity="1" d="M 45.5 165 L 46 167.5 L 45 167.5 L 45.5 165 Z " /><path fill="rgb(95,131,143)" stroke="rgb(95,131,143)" stroke-width="1" opacity="1" d="M 90.5 165 L 91 168.5 L 90 168.5 L 90.5 165 Z " /><path fill="rgb(95,131,143)" stroke="rgb(95,131,143)" stroke-width="1" opacity="1" d="M 154.5 165 L 155.5 167 L 154.5 165 Z " /><path fill="rgb(95,131,143)" stroke="rgb(95,131,143)" stroke-width="1" opacity="1" d="M 42.5 166 L 43 167.5 Q 42 171 36.5 170 L 36.5 169 Q 41 170 42 167.5 L 42.5 166 Z " /><path fill="rgb(95,131,143)" stroke="rgb(95,131,143)" stroke-width="1" opacity="1" d="M 33.5 167 L 34.5 169 L 33.5 167 Z " /><path fill="rgb(95,131,143)" stroke="rgb(95,131,143)" stroke-width="1" opacity="1" d="M 179.5 167 L 180.5 169 L 179.5 167 Z " /><path fill="rgb(95,131,143)" stroke="rgb(95,131,143)" stroke-width="1" opacity="1" d="M 31.5 168 L 34 171.5 L 31 169.5 L 31.5 168 Z " /><path fill="rgb(95,131,143)" stroke="rgb(95,131,143)" stroke-width="1" opacity="1" d="M 187.5 168 L 186.5 170 L 182 169.5 L 187.5 168 Z " /><path fill="rgb(95,131,143)" stroke="rgb(95,131,143)" stroke-width="1" opacity="1" d="M 44.5 169 L 42.5 172 L 44.5 169 Z " /><path fill="rgb(95,131,143)" stroke="rgb(95,131,143)" stroke-width="1" opacity="1" d="M 85.5 169 L 89 169.5 L 85.5 170 L 85.5 169 Z " /><path fill="rgb(95,131,143)" stroke="rgb(95,131,143)" stroke-width="1" opacity="1" d="M 177.5 169 L 179.5 172 L 177.5 169 Z " /><path fill="rgb(95,131,143)" stroke="rgb(95,131,143)" stroke-width="1" opacity="1" d="M 190.5 169 L 188.5 172 L 190.5 169 Z " /><path fill="rgb(95,131,143)" stroke="rgb(95,131,143)" stroke-width="1" opacity="1" d="M 166.5 171 L 165.5 173 L 166.5 171 Z " /><path fill="rgb(95,131,143)" stroke="rgb(95,131,143)" stroke-width="1" opacity="1" d="M 36.5 172 L 41 172.5 L 36.5 173 L 36.5 172 Z " /><path fill="rgb(95,131,143)" stroke="rgb(95,131,143)" stroke-width="1" opacity="1" d="M 84.5 172 L 89 172.5 L 84.5 173 L 84.5 172 Z " /><path fill="rgb(95,131,143)" stroke="rgb(95,131,143)" stroke-width="1" opacity="1" d="M 130.5 172 L 133 172.5 L 130.5 173 L 130.5 172 Z " /><path fill="rgb(95,131,143)" stroke="rgb(95,131,143)" stroke-width="1" opacity="1" d="M 182.5 172 L 187 172.5 L 182.5 173 L 182.5 172 Z " /><path fill="rgb(95,131,143)" stroke="rgb(95,131,143)" stroke-width="1" opacity="1" d="M 132.5 181 L 131.5 183 L 132.5 181 Z " /><path fill="rgb(7,26,51)" stroke="rgb(7,26,51)" stroke-width="1" opacity="1" d="M 106.5 11 L 109 11.5 L 106.5 12 L 106.5 11 Z " /><path fill="rgb(7,26,51)" stroke="rgb(7,26,51)" stroke-width="1" opacity="1" d="M 104.5 12 L 103.5 14 L 104.5 12 Z " /><path fill="rgb(7,26,51)" stroke="rgb(7,26,51)" stroke-width="1" opacity="1" d="M 114.5 16 L 115.5 18 L 114.5 16 Z " /><path fill="rgb(7,26,51)" stroke="rgb(7,26,51)" stroke-width="1" opacity="1" d="M 100.5 17 L 99.5 19 L 100.5 17 Z " /><path fill="rgb(7,26,51)" stroke="rgb(7,26,51)" stroke-width="1" opacity="1" d="M 117.5 20 L 118.5 22 L 117.5 20 Z " /><path fill="rgb(7,26,51)" stroke="rgb(7,26,51)" stroke-width="1" opacity="1" d="M 121.5 25 L 122.5 27 L 121.5 25 Z " /><path fill="rgb(7,26,51)" stroke="rgb(7,26,51)" stroke-width="1" opacity="1" d="M 93.5 26 L 92.5 28 L 93.5 26 Z " /><path fill="rgb(7,26,51)" stroke="rgb(7,26,51)" stroke-width="1" opacity="1" d="M 124.5 29 L 126.5 32 L 124.5 29 Z " /><path fill="rgb(7,26,51)" stroke="rgb(7,26,51)" stroke-width="1" opacity="1" d="M 89.5 31 L 88.5 33 L 89.5 31 Z " /><path fill="rgb(7,26,51)" stroke="rgb(7,26,51)" stroke-width="1" opacity="1" d="M 128.5 34 L 129.5 36 L 128.5 34 Z " /><path fill="rgb(7,26,51)" stroke="rgb(7,26,51)" stroke-width="1" opacity="1" d="M 86.5 35 L 85.5 37 L 86.5 35 Z " /><path fill="rgb(7,26,51)" stroke="rgb(7,26,51)" stroke-width="1" opacity="1" d="M 134.5 42 L 135.5 44 L 134.5 42 Z " /><path fill="rgb(7,26,51)" stroke="rgb(7,26,51)" stroke-width="1" opacity="1" d="M 79.5 44 L 78.5 46 L 79.5 44 Z " /><path fill="rgb(7,26,51)" stroke="rgb(7,26,51)" stroke-width="1" opacity="1" d="M 137.5 46 L 138.5 48 L 137.5 46 Z " /><path fill="rgb(7,26,51)" stroke="rgb(7,26,51)" stroke-width="1" opacity="1" d="M 76.5 48 L 74.5 51 L 76.5 48 Z " /><path fill="rgb(7,26,51)" stroke="rgb(7,26,51)" stroke-width="1" opacity="1" d="M 141.5 51 L 142.5 52 L 194.5 52 L 201 56.5 L 203 61.5 L 203 148.5 L 202 148.5 L 201.5 145 L 199 146 L 198.5 148 L 183.5 148 L 181.5 148 L 172 147.5 L 174 146.5 L 170.5 146 L 170.5 148 L 137.5 148 L 136.5 147 L 133.5 148 L 92.5 148 L 91.5 147 L 90.5 148 L 75.5 148 L 75.5 147 L 87 146.5 L 75.5 146 L 73 145 L 74 147.5 L 21.5 148 L 21.5 146 Q 17.3 147.3 19 142.5 L 18 142.5 L 19 147.5 L 17 148.5 L 17 60.5 L 20 54 L 24.5 52 L 73.5 52 L 76.5 53 L 78.5 52 L 79.5 53 L 129.5 53 L 131.5 53 L 136.5 52 L 141 53 L 141.5 51 Z M 28 53 L 28 54 L 31 54 L 28 53 Z M 50 53 L 50 54 L 53 54 L 50 53 Z M 55 53 L 55 54 L 57 54 L 55 53 Z M 158 53 L 158 54 L 164 54 L 158 53 Z M 167 53 L 167 54 L 171 54 L 167 53 Z M 23 54 L 23 55 L 25 55 L 23 54 Z M 22 55 Q 19 56 21 58 L 20 63 L 18 65 Q 17 67 20 66 L 23 62 Q 24 57 22 55 Z M 179 56 L 178 57 Q 175 56 176 59 L 186 59 L 185 58 L 185 57 L 191 58 L 191 56 L 179 56 Z M 28 57 L 24 58 Q 23 62 26 63 L 28 62 L 29 60 L 27 61 L 29 58 L 29 60 L 32 60 L 34 59 Q 40 58 43 60 L 42 57 Q 37 56 36 58 L 28 57 Z M 53 57 L 52 59 L 55 59 L 53 57 Z M 164 57 L 157 60 L 159 65 L 158 68 Q 159 70 157 69 L 155 72 Q 156 74 158 72 L 159 75 L 155 77 Q 152 76 153 79 L 151 80 Q 149 78 148 81 L 157 82 L 160 85 L 161 84 L 164 86 L 166 80 L 166 78 L 165 77 L 164 75 L 167 74 L 167 77 L 168 77 L 167 73 Q 168 70 166 71 L 166 70 L 169 71 Q 173 69 170 68 L 171 64 L 170 62 L 173 60 L 164 57 Z M 70 58 L 68 60 L 69 62 Q 72 63 71 60 L 74 60 L 70 58 Z M 87 58 L 86 60 L 88 59 L 87 58 Z M 141 58 Q 140 61 143 60 Q 144 57 141 58 Z M 90 59 L 90 60 L 94 60 L 90 59 Z M 104 59 L 102 60 L 99 64 L 95 65 L 95 67 L 94 66 L 93 66 L 95 70 L 96 69 L 106 69 L 107 71 L 107 70 L 109 70 L 110 68 Q 107 69 108 67 L 114 63 Q 115 60 112 61 L 112 59 L 109 60 L 104 59 Z M 151 59 Q 150 62 153 61 Q 154 58 151 59 Z M 191 59 L 190 61 Q 193 62 191 64 L 193 64 L 194 60 L 191 59 Z M 195 59 L 195 63 L 196 63 Q 197 58 195 59 Z M 199 60 L 199 62 Q 201 63 199 64 Q 195 63 197 67 L 200 66 L 201 74 L 200 80 L 199 73 L 198 71 L 197 73 L 194 75 L 196 76 L 193 78 L 193 79 L 198 79 Q 197 83 200 82 L 200 102 L 201 106 L 201 108 L 200 111 L 198 111 L 198 106 Q 195 105 196 110 Q 195 112 194 110 L 192 113 L 192 128 L 194 130 Q 195 132 192 131 Q 191 135 194 134 L 193 139 L 197 140 L 199 135 L 200 141 L 198 141 L 196 140 L 192 143 L 196 143 L 198 143 L 202 144 L 202 66 L 201 65 Q 203 59 199 60 Z M 121 61 L 121 62 L 123 62 L 121 61 Z M 29 63 L 26 64 L 25 68 Q 26 70 24 69 L 22 69 L 20 70 L 19 68 L 18 68 L 19 75 L 19 72 L 21 72 L 24 71 L 26 74 Q 30 72 27 71 L 28 67 L 30 67 L 29 63 Z M 31 63 L 30 73 L 28 73 Q 27 76 30 75 L 30 85 L 27 89 L 29 91 L 31 90 L 30 89 L 30 88 L 32 89 L 45 89 L 47 88 L 48 84 L 48 82 Q 49 79 46 80 L 47 78 L 47 63 L 31 63 Z M 52 63 L 52 76 L 55 78 L 64 79 L 67 85 Q 68 92 65 95 Q 62 99 54 98 L 51 103 L 52 112 L 63 112 L 71 108 L 78 100 L 81 90 Q 81 80 77 74 Q 70 62 52 63 Z M 75 63 L 95 107 L 95 141 L 109 141 L 109 107 L 129 65 L 129 63 L 114 63 L 103 90 L 90 65 L 90 63 L 75 63 Z M 133 63 L 124 83 L 124 141 L 126 141 L 128 141 L 136 141 L 137 142 L 138 141 L 139 94 L 153 129 Q 154 131 160 130 L 164 124 L 174 97 L 176 98 L 176 141 L 190 141 L 190 64 L 190 63 L 174 63 L 158 104 L 141 65 Q 139 61 133 63 Z M 152 63 L 147 64 Q 145 68 150 67 L 149 70 L 150 70 L 150 75 L 153 75 L 153 68 L 156 67 L 156 64 L 152 63 Z M 173 63 L 171 65 L 173 65 L 173 63 Z M 22 64 Q 22 68 24 65 L 22 64 Z M 104 73 L 104 74 L 106 74 L 104 73 Z M 101 74 L 99 76 L 101 76 L 101 74 Z M 101 77 L 99 79 L 101 79 L 101 77 Z M 19 80 L 18 107 L 19 107 L 19 80 Z M 50 80 L 49 82 L 51 83 L 50 80 Z M 57 82 L 57 83 L 59 83 L 57 82 Z M 21 85 L 20 88 L 21 88 L 21 85 Z M 24 85 L 22 87 L 25 87 Q 26 84 24 85 Z M 50 85 L 48 87 Q 47 89 50 88 Q 53 87 50 85 Z M 60 85 Q 61 89 56 87 Q 54 85 53 88 L 55 89 L 54 89 Q 52 86 50 91 Q 49 95 54 93 L 54 96 L 57 95 L 58 97 L 58 94 L 63 91 Q 62 88 65 89 L 66 87 Q 65 84 64 86 L 60 85 Z M 119 87 L 118 91 L 119 94 L 119 93 L 123 91 L 122 90 Q 119 89 121 88 L 119 87 Z M 123 87 L 121 89 L 123 89 L 123 87 Z M 158 87 L 156 92 Q 155 94 158 93 L 158 87 Z M 23 89 L 20 93 L 22 92 L 21 94 L 23 94 L 24 92 Q 25 88 23 89 Z M 46 92 L 47 96 L 49 95 Q 51 96 50 94 L 46 92 Z M 26 93 L 26 95 L 24 96 L 26 98 L 28 97 L 27 96 L 28 94 L 26 93 Z M 34 93 L 31 96 L 31 141 L 43 141 L 44 142 L 45 141 L 45 114 L 47 112 L 47 98 L 46 96 Q 43 91 34 93 Z M 198 93 L 197 96 L 195 97 L 198 98 L 199 96 L 198 93 Z M 123 94 L 122 96 L 121 95 L 117 96 L 118 99 L 115 100 L 117 101 Q 115 102 116 107 L 117 107 Q 115 101 119 102 L 121 105 L 122 101 L 122 106 L 123 106 L 123 94 Z M 23 97 L 22 101 L 21 101 L 21 102 Q 23 101 22 105 L 24 104 Q 25 99 23 97 Z M 83 97 Q 82 100 86 99 Q 87 96 83 97 Z M 27 98 L 25 100 L 26 107 L 27 107 Q 26 104 29 105 Q 30 100 27 98 Z M 199 98 L 198 101 L 199 101 L 199 98 Z M 87 99 L 86 101 L 84 101 Q 85 104 83 103 L 83 105 L 80 106 L 79 110 Q 80 112 78 111 L 78 113 L 77 115 L 71 117 L 64 115 L 62 121 Q 61 124 59 121 L 59 119 L 54 119 L 53 124 Q 55 125 54 130 L 57 131 Q 59 137 54 135 Q 51 143 60 140 L 60 141 Q 53 143 52 140 L 51 142 L 51 143 Q 56 145 58 142 L 62 144 Q 68 146 70 143 Q 74 142 76 144 Q 78 145 77 142 L 74 141 Q 75 138 77 140 L 77 137 L 80 136 L 81 140 L 85 140 L 85 134 L 89 133 Q 92 132 90 138 L 92 137 Q 94 136 93 140 L 94 140 L 94 133 Q 91 132 92 128 L 88 125 Q 85 124 86 127 L 87 128 L 85 127 Q 82 126 83 129 Q 81 132 80 128 L 76 134 L 69 135 L 69 131 L 75 131 Q 73 127 77 128 L 77 127 Q 74 128 75 125 L 77 125 Q 81 126 79 121 L 87 121 L 87 118 Q 90 119 89 116 L 86 115 L 87 113 L 86 110 L 89 108 L 88 107 Q 85 106 87 105 L 87 99 Z M 50 104 L 49 107 L 50 107 L 50 104 Z M 75 105 L 75 106 L 77 106 L 75 105 Z M 22 107 Q 21 111 26 109 Q 27 105 22 107 Z M 19 108 L 18 120 L 19 120 L 19 108 Z M 115 109 L 113 111 L 113 123 Q 117 124 115 117 L 115 115 Q 114 112 117 113 Q 119 108 115 109 Z M 171 110 L 169 113 L 171 114 L 171 110 Z M 23 111 L 23 114 L 26 115 L 25 119 L 26 121 Q 27 123 25 122 L 23 124 L 23 134 Q 25 137 27 133 L 29 134 L 29 128 L 28 127 L 29 124 L 29 117 Q 26 116 27 112 L 26 112 L 23 111 Z M 90 111 L 90 114 L 92 115 Q 93 110 90 111 Z M 140 113 L 142 123 L 144 125 L 144 127 L 149 127 L 149 122 L 148 121 L 148 120 L 147 119 L 145 119 L 145 118 L 142 117 Q 143 112 140 113 Z M 49 116 L 46 117 L 47 119 L 49 118 L 50 121 Q 52 126 48 125 L 49 140 L 51 139 L 52 133 L 51 128 Q 49 121 52 120 L 51 118 Q 52 115 49 116 Z M 118 116 Q 116 122 118 125 L 121 127 L 121 123 L 118 116 Z M 173 117 L 174 118 L 175 119 Q 176 116 173 117 Z M 167 122 L 167 124 L 164 125 L 164 126 L 168 126 L 168 122 L 167 122 Z M 19 125 L 18 135 L 19 135 L 19 125 Z M 116 125 Q 114 128 117 127 L 116 125 Z M 165 127 L 164 130 L 165 130 L 165 127 Z M 170 127 Q 166 129 170 131 L 164 132 L 164 134 Q 160 135 161 141 L 160 140 L 158 141 L 156 138 Q 158 136 156 135 L 155 138 L 155 140 L 153 140 L 152 143 L 160 144 Q 164 145 166 143 L 171 144 L 170 142 Q 169 139 172 140 L 174 140 L 174 138 L 172 138 L 174 137 L 175 138 L 175 129 L 173 128 L 174 134 L 174 136 L 172 135 Q 173 130 171 129 Q 172 126 170 127 Z M 145 128 L 142 132 L 142 139 L 151 139 Q 152 141 153 139 L 149 138 Q 147 134 152 135 L 154 135 Q 156 136 155 133 L 152 133 L 154 132 L 154 131 L 151 132 L 150 131 L 147 130 Q 148 127 145 128 Z M 119 131 L 118 138 L 119 138 L 119 131 Z M 158 132 L 156 135 L 159 135 L 158 132 Z M 88 135 L 86 138 L 89 138 L 88 135 Z M 24 136 L 21 138 L 25 139 Q 26 135 24 136 Z M 89 139 L 87 142 L 87 143 L 92 143 L 90 142 L 89 139 Z M 28 141 Q 26 144 29 143 L 28 141 Z M 82 141 L 80 143 L 83 144 L 85 143 L 82 141 Z M 119 141 L 117 142 L 117 143 L 122 143 L 119 141 Z M 65 145 L 59 147 L 67 147 Q 68 144 65 145 Z M 130 145 L 130 146 L 132 146 L 130 145 Z M 144 145 L 139 146 L 139 147 L 149 147 L 144 145 Z M 24 146 L 24 147 L 26 147 L 24 146 Z M 42 146 L 42 147 L 48 147 L 42 146 Z M 161 146 L 161 147 L 163 147 L 161 146 Z " /><path fill="rgb(7,26,51)" stroke="rgb(7,26,51)" stroke-width="1" opacity="1" d="M 198.5 113 Q 201.5 114.5 200 120.5 L 199 122.5 L 200 125.5 L 199.5 134 L 198 127.5 L 198.5 113 Z " /><path fill="rgb(7,26,51)" stroke="rgb(7,26,51)" stroke-width="1" opacity="1" d="M 195.5 129 Q 197.8 128.3 197 130.5 L 195.5 129 Z " /><path fill="rgb(7,26,51)" stroke="rgb(7,26,51)" stroke-width="1" opacity="1" d="M 81.5 131 L 83 133.5 L 79 135 L 81.5 131 Z " /><path fill="rgb(7,26,51)" stroke="rgb(7,26,51)" stroke-width="1" opacity="1" d="M 61 135 Q 65.1 133.7 64 137 Q 59.9 138.3 61 135 Z " /><path fill="rgb(7,26,51)" stroke="rgb(7,26,51)" stroke-width="1" opacity="1" d="M 203.5 150 L 204 168.5 L 203 168.5 L 203.5 150 Z " /><path fill="rgb(7,26,51)" stroke="rgb(7,26,51)" stroke-width="1" opacity="1" d="M 17.5 173 L 19 175.5 L 17 174.5 L 17.5 173 Z " /><path fill="rgb(7,26,51)" stroke="rgb(7,26,51)" stroke-width="1" opacity="1" d="M 201.5 175 L 198.5 179 L 201.5 175 Z " /><path fill="rgb(7,26,51)" stroke="rgb(7,26,51)" stroke-width="1" opacity="1" d="M 82.5 180 L 86.5 185 L 82.5 180 Z " /><path fill="rgb(7,26,51)" stroke="rgb(7,26,51)" stroke-width="1" opacity="1" d="M 90.5 189 L 92.5 192 L 90.5 189 Z " /><path fill="rgb(7,26,51)" stroke="rgb(7,26,51)" stroke-width="1" opacity="1" d="M 123.5 192 L 118.5 198 L 123.5 192 Z " /><path fill="rgb(7,26,51)" stroke="rgb(7,26,51)" stroke-width="1" opacity="1" d="M 98.5 198 L 105.5 206 L 98.5 198 Z " /><path fill="rgb(7,26,51)" stroke="rgb(7,26,51)" stroke-width="1" opacity="1" d="M 115.5 201 L 111.5 206 L 115.5 201 Z " /><path fill="rgb(188,209,215)" stroke="rgb(188,209,215)" stroke-width="1" opacity="1" d="M 107.5 30 L 108 37 L 106 36.5 L 107.5 30 Z " /><path fill="rgb(188,209,215)" stroke="rgb(188,209,215)" stroke-width="1" opacity="1" d="M 109.5 31 L 110 36.5 L 109 36.5 L 109.5 31 Z " /><path fill="rgb(188,209,215)" stroke="rgb(188,209,215)" stroke-width="1" opacity="1" d="M 100.5 38 Q 106.5 36.5 108 39.5 L 107.5 45 L 107 39 L 100.5 39 L 100.5 38 Z " /><path fill="rgb(188,209,215)" stroke="rgb(188,209,215)" stroke-width="1" opacity="1" d="M 109 38 L 116 38.5 L 110 39 L 109.5 44 L 109 38 Z " /><path fill="rgb(188,209,215)" stroke="rgb(188,209,215)" stroke-width="1" opacity="1" d="M 32.5 64 L 46 64.5 L 32.5 65 L 32.5 64 Z " /><path fill="rgb(188,209,215)" stroke="rgb(188,209,215)" stroke-width="1" opacity="1" d="M 53.5 64 L 61 64.5 L 53.5 65 L 53.5 64 Z " /><path fill="rgb(188,209,215)" stroke="rgb(188,209,215)" stroke-width="1" opacity="1" d="M 77.5 64 L 88.5 64 L 90 65.5 L 88.5 65 L 77.5 65 L 77.5 64 Z " /><path fill="rgb(188,209,215)" stroke="rgb(188,209,215)" stroke-width="1" opacity="1" d="M 115.5 64 L 127 64.5 L 115.5 65 L 115.5 64 Z " /><path fill="rgb(188,209,215)" stroke="rgb(188,209,215)" stroke-width="1" opacity="1" d="M 134.5 64 Q 139 63 140 65.5 L 138.5 65 L 133.5 66 L 134.5 64 Z " /><path fill="rgb(188,209,215)" stroke="rgb(188,209,215)" stroke-width="1" opacity="1" d="M 175.5 64 L 188.5 64 L 189 64.5 L 189 139.5 L 188 139.5 L 188 65.5 L 187.5 65 L 175.5 65 L 175.5 64 Z " /><path fill="rgb(188,209,215)" stroke="rgb(188,209,215)" stroke-width="1" opacity="1" d="M 32.5 67 L 35.5 71 L 32.5 67 Z " /><path fill="rgb(188,209,215)" stroke="rgb(188,209,215)" stroke-width="1" opacity="1" d="M 71.5 69 L 73.5 72 L 71.5 69 Z " /><path fill="rgb(188,209,215)" stroke="rgb(188,209,215)" stroke-width="1" opacity="1" d="M 36.5 72 L 42.5 79 L 36.5 72 Z " /><path fill="rgb(188,209,215)" stroke="rgb(188,209,215)" stroke-width="1" opacity="1" d="M 75.5 74 L 76.5 76 L 75.5 74 Z " /><path fill="rgb(188,209,215)" stroke="rgb(188,209,215)" stroke-width="1" opacity="1" d="M 55.5 76 L 61 76.5 L 55.5 77 L 55.5 76 Z " /><path fill="rgb(188,209,215)" stroke="rgb(188,209,215)" stroke-width="1" opacity="1" d="M 64.5 78 L 65.5 80 L 64.5 78 Z " /><path fill="rgb(188,209,215)" stroke="rgb(188,209,215)" stroke-width="1" opacity="1" d="M 125.5 82 L 126 139.5 L 125 139.5 L 125.5 82 Z " /><path fill="rgb(188,209,215)" stroke="rgb(188,209,215)" stroke-width="1" opacity="1" d="M 68.5 86 L 69 89.5 L 68 89.5 L 68.5 86 Z " /><path fill="rgb(188,209,215)" stroke="rgb(188,209,215)" stroke-width="1" opacity="1" d="M 137.5 90 L 138.5 92 L 137.5 90 Z " /><path fill="rgb(188,209,215)" stroke="rgb(188,209,215)" stroke-width="1" opacity="1" d="M 176.5 90 L 177.5 92 L 175 91.5 L 176.5 90 Z " /><path fill="rgb(188,209,215)" stroke="rgb(188,209,215)" stroke-width="1" opacity="1" d="M 65.5 95 L 64.5 97 L 65.5 95 Z " /><path fill="rgb(188,209,215)" stroke="rgb(188,209,215)" stroke-width="1" opacity="1" d="M 75.5 100 L 74.5 102 L 75.5 100 Z " /><path fill="rgb(188,209,215)" stroke="rgb(188,209,215)" stroke-width="1" opacity="1" d="M 96.5 107 L 97 139.5 L 96 139.5 L 96.5 107 Z " /><path fill="rgb(188,209,215)" stroke="rgb(188,209,215)" stroke-width="1" opacity="1" d="M 60.5 110 L 63 110.5 L 60.5 111 L 60.5 110 Z " /><path fill="rgb(188,209,215)" stroke="rgb(188,209,215)" stroke-width="1" opacity="1" d="M 57.5 153 L 58.5 155 L 57.5 153 Z " /><path fill="rgb(188,209,215)" stroke="rgb(188,209,215)" stroke-width="1" opacity="1" d="M 68.5 153 L 71 153.5 L 68.5 154 L 68.5 153 Z " /><path fill="rgb(188,209,215)" stroke="rgb(188,209,215)" stroke-width="1" opacity="1" d="M 84.5 153 L 86 153.5 L 84 154.5 Q 86.3 155.8 83.5 157 L 83 154.5 L 84.5 153 Z " /><path fill="rgb(188,209,215)" stroke="rgb(188,209,215)" stroke-width="1" opacity="1" d="M 103.5 153 L 116.5 153 L 117 154.5 L 115.5 154 L 103.5 154 L 103.5 153 Z " /><path fill="rgb(188,209,215)" stroke="rgb(188,209,215)" stroke-width="1" opacity="1" d="M 127.5 153 L 138 153.5 L 127.5 154 L 127.5 153 Z " /><path fill="rgb(188,209,215)" stroke="rgb(188,209,215)" stroke-width="1" opacity="1" d="M 149.5 153 L 150.5 155 L 149.5 153 Z " /><path fill="rgb(188,209,215)" stroke="rgb(188,209,215)" stroke-width="1" opacity="1" d="M 165.5 153 L 167 154.5 L 167 170.5 L 164 172 L 163.5 161 L 162 161.5 L 165 160 L 165.5 171 L 166 154.5 L 165.5 153 Z " /><path fill="rgb(188,209,215)" stroke="rgb(188,209,215)" stroke-width="1" opacity="1" d="M 181.5 153 L 183 153.5 L 181 154.5 L 181 156.5 L 180.5 158 L 179.5 156 L 178.5 160 L 178 156.5 L 181.5 153 Z " /><path fill="rgb(188,209,215)" stroke="rgb(188,209,215)" stroke-width="1" opacity="1" d="M 34.5 154 L 33.5 156 L 34.5 154 Z " /><path fill="rgb(188,209,215)" stroke="rgb(188,209,215)" stroke-width="1" opacity="1" d="M 91.5 154 Q 94.5 155.5 91.5 157 L 91.5 154 Z " /><path fill="rgb(188,209,215)" stroke="rgb(188,209,215)" stroke-width="1" opacity="1" d="M 188.5 154 Q 190.8 153.3 190 155.5 Q 188.8 158.3 187.5 156 L 186 155.5 L 188.5 154 Z " /><path fill="rgb(188,209,215)" stroke="rgb(188,209,215)" stroke-width="1" opacity="1" d="M 41.5 155 L 42.5 157 L 41.5 155 Z " /><path fill="rgb(188,209,215)" stroke="rgb(188,209,215)" stroke-width="1" opacity="1" d="M 56.5 155 L 57.5 157 L 56.5 155 Z " /><path fill="rgb(188,209,215)" stroke="rgb(188,209,215)" stroke-width="1" opacity="1" d="M 67.5 155 L 66.5 157 L 67.5 155 Z " /><path fill="rgb(188,209,215)" stroke="rgb(188,209,215)" stroke-width="1" opacity="1" d="M 164.5 155 L 163.5 157 L 164.5 155 Z " /><path fill="rgb(188,209,215)" stroke="rgb(188,209,215)" stroke-width="1" opacity="1" d="M 81.5 156 Q 80.9 161.1 84 162.5 L 81 160.5 L 81.5 156 Z " /><path fill="rgb(188,209,215)" stroke="rgb(188,209,215)" stroke-width="1" opacity="1" d="M 110.5 156 L 111 172 L 109 171.5 L 110 170.5 L 110.5 156 Z " /><path fill="rgb(188,209,215)" stroke="rgb(188,209,215)" stroke-width="1" opacity="1" d="M 151.5 156 L 152.5 158 L 151.5 156 Z " /><path fill="rgb(188,209,215)" stroke="rgb(188,209,215)" stroke-width="1" opacity="1" d="M 32.5 157 L 33 159.5 L 32 159.5 L 32.5 157 Z " /><path fill="rgb(188,209,215)" stroke="rgb(188,209,215)" stroke-width="1" opacity="1" d="M 34.5 157 L 36 160.5 L 34 159.5 L 34.5 157 Z " /><path fill="rgb(188,209,215)" stroke="rgb(188,209,215)" stroke-width="1" opacity="1" d="M 60.5 158 L 61.5 160 L 60.5 158 Z " /><path fill="rgb(188,209,215)" stroke="rgb(188,209,215)" stroke-width="1" opacity="1" d="M 162.5 158 L 161.5 160 L 162.5 158 Z " /><path fill="rgb(188,209,215)" stroke="rgb(188,209,215)" stroke-width="1" opacity="1" d="M 83.5 159 L 84.5 161 L 83.5 159 Z " /><path fill="rgb(188,209,215)" stroke="rgb(188,209,215)" stroke-width="1" opacity="1" d="M 153.5 159 L 154.5 161 L 153.5 159 Z " /><path fill="rgb(188,209,215)" stroke="rgb(188,209,215)" stroke-width="1" opacity="1" d="M 180.5 159 L 181.5 161 L 180.5 159 Z " /><path fill="rgb(188,209,215)" stroke="rgb(188,209,215)" stroke-width="1" opacity="1" d="M 59.5 160 L 60.5 162 L 59.5 160 Z " /><path fill="rgb(188,209,215)" stroke="rgb(188,209,215)" stroke-width="1" opacity="1" d="M 64.5 160 L 67 160.5 L 63.5 162 L 62 161.5 L 64.5 160 Z " /><path fill="rgb(188,209,215)" stroke="rgb(188,209,215)" stroke-width="1" opacity="1" d="M 37.5 161 L 40 161.5 L 37.5 162 L 37.5 161 Z " /><path fill="rgb(188,209,215)" stroke="rgb(188,209,215)" stroke-width="1" opacity="1" d="M 86.5 161 L 89 161.5 L 86.5 162 L 86.5 161 Z " /><path fill="rgb(188,209,215)" stroke="rgb(188,209,215)" stroke-width="1" opacity="1" d="M 129.5 161 L 137 161.5 L 129.5 162 L 129.5 161 Z " /><path fill="rgb(188,209,215)" stroke="rgb(188,209,215)" stroke-width="1" opacity="1" d="M 183.5 161 L 186 161.5 L 183.5 162 L 183.5 161 Z " /><path fill="rgb(188,209,215)" stroke="rgb(188,209,215)" stroke-width="1" opacity="1" d="M 42.5 162 L 45 165.5 L 44 165.5 L 42.5 162 Z " /><path fill="rgb(188,209,215)" stroke="rgb(188,209,215)" stroke-width="1" opacity="1" d="M 188.5 162 L 189.5 164 L 188.5 162 Z " /><path fill="rgb(188,209,215)" stroke="rgb(188,209,215)" stroke-width="1" opacity="1" d="M 86.5 163 L 90 164.5 L 88.5 164 Q 85.5 164.5 86.5 163 Z " /><path fill="rgb(188,209,215)" stroke="rgb(188,209,215)" stroke-width="1" opacity="1" d="M 133.5 163 L 136 163.5 L 133.5 164 L 133.5 163 Z " /><path fill="rgb(188,209,215)" stroke="rgb(188,209,215)" stroke-width="1" opacity="1" d="M 41.5 164 L 42.5 166 L 41.5 164 Z " /><path fill="rgb(188,209,215)" stroke="rgb(188,209,215)" stroke-width="1" opacity="1" d="M 154.5 164 L 155.5 166 L 154.5 164 Z " /><path fill="rgb(188,209,215)" stroke="rgb(188,209,215)" stroke-width="1" opacity="1" d="M 187.5 164 L 189 167.5 L 188 167.5 L 187.5 164 Z " /><path fill="rgb(188,209,215)" stroke="rgb(188,209,215)" stroke-width="1" opacity="1" d="M 190.5 165 L 191 168.5 L 189 169.5 L 190.5 165 Z " /><path fill="rgb(188,209,215)" stroke="rgb(188,209,215)" stroke-width="1" opacity="1" d="M 159.5 166 L 157.5 169 L 156.5 167 Q 158 169.5 159.5 166 Z " /><path fill="rgb(188,209,215)" stroke="rgb(188,209,215)" stroke-width="1" opacity="1" d="M 42.5 168 L 41.5 170 L 42.5 168 Z " /><path fill="rgb(188,209,215)" stroke="rgb(188,209,215)" stroke-width="1" opacity="1" d="M 81.5 168 L 85 169.5 L 83.5 170 L 81.5 169 L 81.5 171 Q 78.5 169.5 81.5 168 Z " /><path fill="rgb(188,209,215)" stroke="rgb(188,209,215)" stroke-width="1" opacity="1" d="M 92.5 169 L 91.5 171 L 92.5 169 Z " /><path fill="rgb(188,209,215)" stroke="rgb(188,209,215)" stroke-width="1" opacity="1" d="M 33.5 170 L 37 171.5 L 34.5 172 L 33.5 170 Z " /><path fill="rgb(188,209,215)" stroke="rgb(188,209,215)" stroke-width="1" opacity="1" d="M 138.5 170 L 139 172 L 127 171.5 L 137.5 171 L 138.5 170 Z " /><path fill="rgb(188,209,215)" stroke="rgb(188,209,215)" stroke-width="1" opacity="1" d="M 107.5 183 L 108 193 L 105 192.5 L 107 192 L 107.5 183 Z " /><path fill="rgb(188,209,215)" stroke="rgb(188,209,215)" stroke-width="1" opacity="1" d="M 109.5 184 L 110 192 L 112 192.5 L 109 193 L 109.5 184 Z " /><path fill="rgb(188,209,215)" stroke="rgb(188,209,215)" stroke-width="1" opacity="1" d="M 111.5 194 L 109.5 197 L 111.5 194 Z " /><path fill="rgb(188,209,215)" stroke="rgb(188,209,215)" stroke-width="1" opacity="1" d="M 106.5 195 L 107.5 197 L 106.5 195 Z " /><path fill="rgb(12,29,54)" stroke="rgb(12,29,54)" stroke-width="1" opacity="1" d="M 112.5 14 L 113.5 16 L 112.5 14 Z " /><path fill="rgb(12,29,54)" stroke="rgb(12,29,54)" stroke-width="1" opacity="1" d="M 74.5 51 L 77 52.5 L 74 53 L 74.5 51 Z " /><path fill="rgb(12,29,54)" stroke="rgb(12,29,54)" stroke-width="1" opacity="1" d="M 79.5 52 L 130 52.5 L 79.5 53 L 79.5 52 Z " /><path fill="rgb(12,29,54)" stroke="rgb(12,29,54)" stroke-width="1" opacity="1" d="M 131.5 52 L 136 52.5 L 131.5 53 L 131.5 52 Z " /><path fill="rgb(12,29,54)" stroke="rgb(12,29,54)" stroke-width="1" opacity="1" d="M 137.5 52 L 141 52.5 L 137.5 53 L 137.5 52 Z " /><path fill="rgb(12,29,54)" stroke="rgb(12,29,54)" stroke-width="1" opacity="1" d="M 27.5 53 L 31 53.5 L 27.5 54 L 27.5 53 Z " /><path fill="rgb(12,29,54)" stroke="rgb(12,29,54)" stroke-width="1" opacity="1" d="M 49.5 53 L 53 53.5 L 49.5 54 L 49.5 53 Z " /><path fill="rgb(12,29,54)" stroke="rgb(12,29,54)" stroke-width="1" opacity="1" d="M 54.5 53 L 57 53.5 L 54.5 54 L 54.5 53 Z " /><path fill="rgb(12,29,54)" stroke="rgb(12,29,54)" stroke-width="1" opacity="1" d="M 157.5 53 L 164 53.5 L 157.5 54 L 157.5 53 Z " /><path fill="rgb(12,29,54)" stroke="rgb(12,29,54)" stroke-width="1" opacity="1" d="M 166.5 53 L 171 53.5 L 166.5 54 L 166.5 53 Z " /><path fill="rgb(12,29,54)" stroke="rgb(12,29,54)" stroke-width="1" opacity="1" d="M 22.5 54 L 25 54.5 L 22 55 L 23 61.5 L 21.5 64 L 24 64.5 L 22.5 66 L 20 64.5 Q 20.7 67.1 18 66 L 19 63.5 L 18 61.5 L 19 61.5 L 19.5 63 L 21 57.5 Q 18.2 55.7 22.5 54 Z " /><path fill="rgb(12,29,54)" stroke="rgb(12,29,54)" stroke-width="1" opacity="1" d="M 26.5 56 L 35.5 58 Q 36.8 55.7 41.5 57 L 43 60 Q 40.3 58.1 33.5 59 L 31.5 60 L 30.5 59 L 27.5 62 L 25.5 63 Q 23 61.8 24 58 L 27 57.5 L 26.5 56 Z M 29 58 L 27 60 L 29 60 L 29 58 Z " /><path fill="rgb(12,29,54)" stroke="rgb(12,29,54)" stroke-width="1" opacity="1" d="M 178.5 56 L 190.5 56 L 191 58 L 184.5 57 L 184.5 58 L 186 58.5 L 176 59 Q 174.9 56.3 177.5 57 L 178.5 56 Z " /><path fill="rgb(12,29,54)" stroke="rgb(12,29,54)" stroke-width="1" opacity="1" d="M 198.5 56 L 200.5 59 L 198.5 56 Z " /><path fill="rgb(12,29,54)" stroke="rgb(12,29,54)" stroke-width="1" opacity="1" d="M 52.5 57 L 55 58.5 L 51.5 59 L 52.5 57 Z " /><path fill="rgb(12,29,54)" stroke="rgb(12,29,54)" stroke-width="1" opacity="1" d="M 163.5 57 L 173 59.5 L 170 61.5 L 171.5 64 L 172.5 61 L 174.5 64 L 173 63.5 Q 173.8 65.8 171.5 65 L 170 64.5 L 171 68.5 L 167 71 L 168 76.5 L 167 76.5 L 166.5 74 L 164.5 77 L 166 77.5 L 166 79.5 L 167 82.5 L 165 82.5 L 164 86 L 161.5 87 L 160.5 84 L 159.5 85 L 156.5 82 L 148.5 81 L 147 81.5 Q 150.8 79.8 147.5 78 L 146 78.5 Q 148.2 74.7 150.5 80 L 153 78.5 Q 152.3 76.3 154.5 77 L 159 75 L 157.5 72 Q 156.3 74.3 155 71.5 L 156.5 69 Q 158.8 69.8 158 67.5 L 159 64.5 L 157 59.5 L 163.5 57 Z " /><path fill="rgb(12,29,54)" stroke="rgb(12,29,54)" stroke-width="1" opacity="1" d="M 69.5 58 L 74 59.5 L 71 60 Q 72 63 69 62 L 68 59.5 L 69.5 58 Z " /><path fill="rgb(12,29,54)" stroke="rgb(12,29,54)" stroke-width="1" opacity="1" d="M 77.5 58 L 77 59.5 L 76.5 61 L 76 59.5 L 77.5 58 Z " /><path fill="rgb(12,29,54)" stroke="rgb(12,29,54)" stroke-width="1" opacity="1" d="M 86.5 58 L 88 58.5 L 85.5 60 L 86.5 58 Z " /><path fill="rgb(12,29,54)" stroke="rgb(12,29,54)" stroke-width="1" opacity="1" d="M 141 58 Q 143.7 56.9 143 59.5 L 143.5 61 L 141 60 L 141 58 Z " /><path fill="rgb(12,29,54)" stroke="rgb(12,29,54)" stroke-width="1" opacity="1" d="M 89.5 59 L 94 59.5 Q 89 59 87.5 62 L 89.5 59 Z " /><path fill="rgb(12,29,54)" stroke="rgb(12,29,54)" stroke-width="1" opacity="1" d="M 103.5 59 L 108.5 60 L 112 59 Q 110.9 61.7 113.5 61 L 113.5 59 L 115.5 60 L 117 59.5 L 114 61 L 115 63.5 Q 113.3 61.9 111.5 65 L 108 66.5 Q 107.3 68.8 109.5 68 L 109.5 71 L 107 69.5 L 110 74.5 L 108 74.5 L 109 76.5 L 107 75.5 L 108 73.5 L 106 69 L 95.5 69 L 94.5 70 L 93 65.5 L 94 65.5 L 94.5 67 L 95 65 L 99 63.5 L 101.5 60 L 103.5 59 Z " /><path fill="rgb(12,29,54)" stroke="rgb(12,29,54)" stroke-width="1" opacity="1" d="M 151 59 Q 154 58 153 61 Q 150 62 151 59 Z " /><path fill="rgb(12,29,54)" stroke="rgb(12,29,54)" stroke-width="1" opacity="1" d="M 190.5 59 L 193.5 60 L 196 59 L 195.5 63 L 194.5 60 L 192.5 64 L 191 63.5 Q 193.5 62 190 60.5 L 190.5 59 Z " /><path fill="rgb(12,29,54)" stroke="rgb(12,29,54)" stroke-width="1" opacity="1" d="M 47.5 60 L 46.5 62 L 47.5 60 Z " /><path fill="rgb(12,29,54)" stroke="rgb(12,29,54)" stroke-width="1" opacity="1" d="M 199 60 Q 202.7 58.6 201 64.5 L 202 65.5 L 202 144 L 197.5 143 L 195.5 143 L 192 142.5 L 196 139.5 L 193 138.5 L 194 134 Q 190.7 135.1 192 131 Q 194.7 132.1 194 129.5 L 192 127.5 L 192 112.5 L 193.5 110 Q 194.8 112.3 196 109.5 Q 194.7 104.7 198 106 L 198 111 L 200 111 L 201 107.5 L 201 105.5 L 200 101.5 L 200 82 Q 196.7 83.1 198 79 L 193 79 L 193 77.5 L 196 75.5 L 194 74.5 L 197 72.5 L 197.5 71 L 199 72.5 L 199.5 80 L 201 73.5 L 199.5 66 L 197 67 Q 195.5 63.3 198.5 64 Q 201.3 62.8 199 61.5 L 199 60 Z M 199 113 L 198 128 L 200 134 L 200 126 L 199 123 L 200 121 Q 201 114 199 113 Z M 196 129 L 197 131 Q 198 128 196 129 Z M 199 135 L 198 139 L 197 141 L 199 140 L 199 135 Z " /><path fill="rgb(12,29,54)" stroke="rgb(12,29,54)" stroke-width="1" opacity="1" d="M 120.5 61 L 123 61.5 L 120.5 62 L 120.5 61 Z " /><path fill="rgb(12,29,54)" stroke="rgb(12,29,54)" stroke-width="1" opacity="1" d="M 74.5 62 L 76 64.5 L 75 64.5 L 74.5 62 Z " /><path fill="rgb(12,29,54)" stroke="rgb(12,29,54)" stroke-width="1" opacity="1" d="M 28.5 63 L 30 66.5 L 28 67 L 27 70.5 L 29 70.5 Q 26.8 71.8 29.5 73 L 30 69.5 L 29.5 68 L 31 69.5 L 31 87.5 L 32 88.5 L 28.5 91 L 27 88.5 L 30 84.5 L 30 75 Q 27 76.3 28 72.5 L 25 73.5 L 23.5 71 L 20.5 72 L 19 71.5 L 18.5 75 L 18 67.5 L 19 67.5 L 19.5 70 L 21.5 69 L 23.5 69 Q 25.8 69.8 25 67.5 L 26 64 L 28.5 63 Z " /><path fill="rgb(12,29,54)" stroke="rgb(12,29,54)" stroke-width="1" opacity="1" d="M 139.5 63 L 140.5 65 L 139.5 63 Z " /><path fill="rgb(12,29,54)" stroke="rgb(12,29,54)" stroke-width="1" opacity="1" d="M 151.5 63 L 156 64 L 156 67 L 153 67.5 L 153 75 L 150 75 L 150 70 L 148.5 70 L 149.5 67 Q 145.3 68.1 147 64 L 151.5 63 Z " /><path fill="rgb(12,29,54)" stroke="rgb(12,29,54)" stroke-width="1" opacity="1" d="M 143.5 67 L 145 69.5 L 144 69.5 L 143.5 67 Z " /><path fill="rgb(12,29,54)" stroke="rgb(12,29,54)" stroke-width="1" opacity="1" d="M 75.5 72 L 76.5 74 L 75.5 72 Z " /><path fill="rgb(12,29,54)" stroke="rgb(12,29,54)" stroke-width="1" opacity="1" d="M 169.5 72 L 170.5 74 L 169.5 72 Z " /><path fill="rgb(12,29,54)" stroke="rgb(12,29,54)" stroke-width="1" opacity="1" d="M 103.5 73 L 106 73.5 L 103.5 74 L 103.5 73 Z " /><path fill="rgb(12,29,54)" stroke="rgb(12,29,54)" stroke-width="1" opacity="1" d="M 100.5 74 L 101 76 L 99 75.5 L 100.5 74 Z " /><path fill="rgb(12,29,54)" stroke="rgb(12,29,54)" stroke-width="1" opacity="1" d="M 54.5 77 L 60 77.5 L 54.5 78 L 54.5 77 Z " /><path fill="rgb(12,29,54)" stroke="rgb(12,29,54)" stroke-width="1" opacity="1" d="M 100.5 77 L 101 79 L 99 78.5 L 100.5 77 Z " /><path fill="rgb(12,29,54)" stroke="rgb(12,29,54)" stroke-width="1" opacity="1" d="M 18.5 80 L 19 106.5 L 18 106.5 L 18.5 80 Z " /><path fill="rgb(12,29,54)" stroke="rgb(12,29,54)" stroke-width="1" opacity="1" d="M 45.5 80 Q 49.3 79 48 82 L 45.5 80 Z " /><path fill="rgb(12,29,54)" stroke="rgb(12,29,54)" stroke-width="1" opacity="1" d="M 49.5 80 L 51 82.5 L 49 81.5 L 49.5 80 Z " /><path fill="rgb(12,29,54)" stroke="rgb(12,29,54)" stroke-width="1" opacity="1" d="M 56.5 82 L 59 82.5 L 56.5 83 L 56.5 82 Z " /><path fill="rgb(12,29,54)" stroke="rgb(12,29,54)" stroke-width="1" opacity="1" d="M 47.5 83 L 48.5 86 Q 49.7 83.8 51 86.5 L 48 88 L 47.5 90 L 47 88 L 43.5 89 L 43.5 88 L 47 85.5 L 47.5 83 Z " /><path fill="rgb(12,29,54)" stroke="rgb(12,29,54)" stroke-width="1" opacity="1" d="M 80.5 84 L 81 89.5 L 80 89.5 L 80.5 84 Z " /><path fill="rgb(12,29,54)" stroke="rgb(12,29,54)" stroke-width="1" opacity="1" d="M 101.5 84 L 102 85.5 L 100 86.5 L 101.5 84 Z " /><path fill="rgb(12,29,54)" stroke="rgb(12,29,54)" stroke-width="1" opacity="1" d="M 20.5 85 L 21 87.5 L 20 87.5 L 20.5 85 Z " /><path fill="rgb(12,29,54)" stroke="rgb(12,29,54)" stroke-width="1" opacity="1" d="M 23.5 85 Q 26.1 84.3 25 87 L 22 86.5 L 23.5 85 Z " /><path fill="rgb(12,29,54)" stroke="rgb(12,29,54)" stroke-width="1" opacity="1" d="M 60 85 L 63.5 86 Q 64.8 83.8 66 86.5 L 65 88.5 Q 67.8 90.3 63.5 92 L 61.5 92 L 58 93.5 L 57.5 97 L 56.5 95 L 54 96 Q 55.6 91.1 50 93 Q 51.1 95.7 48.5 95 L 47 95.5 L 46 92 L 49.5 93 Q 50 87.5 54.5 86 L 60 87 L 60 85 Z M 63 89 L 63 91 L 65 90 L 63 89 Z " /><path fill="rgb(12,29,54)" stroke="rgb(12,29,54)" stroke-width="1" opacity="1" d="M 118.5 86 L 121.5 88 L 123 87.5 Q 123.8 89.8 121.5 89 L 121.5 90 L 123 90.5 L 119 92.5 L 118.5 94 L 118 90.5 L 119 87.5 L 118.5 86 Z " /><path fill="rgb(12,29,54)" stroke="rgb(12,29,54)" stroke-width="1" opacity="1" d="M 157.5 87 L 158 93 Q 155.3 94.1 156 91.5 L 157.5 87 Z " /><path fill="rgb(12,29,54)" stroke="rgb(12,29,54)" stroke-width="1" opacity="1" d="M 22.5 89 Q 25.1 88.2 24 91.5 L 23 94 L 20 92.5 L 22.5 89 Z " /><path fill="rgb(12,29,54)" stroke="rgb(12,29,54)" stroke-width="1" opacity="1" d="M 161.5 89 L 161 90.5 L 160.5 92 L 160 90.5 L 161.5 89 Z " /><path fill="rgb(12,29,54)" stroke="rgb(12,29,54)" stroke-width="1" opacity="1" d="M 26 93 L 28 93.5 L 27 95.5 L 28.5 98 L 26.5 97 L 29 100.5 L 29 105 Q 26.3 103.9 27 106.5 L 26 109 Q 20.8 110.7 22 107 Q 27.2 109.1 26 104.5 L 25 99.5 L 25 97.5 L 24 95.5 L 26 95 L 26 93 Z " /><path fill="rgb(12,29,54)" stroke="rgb(12,29,54)" stroke-width="1" opacity="1" d="M 197.5 93 L 199 95.5 L 198 97.5 L 199 100.5 L 198 100.5 Q 199.1 97.2 196.5 98 L 195.5 96 Q 198.4 96.8 197.5 93 Z " /><path fill="rgb(12,29,54)" stroke="rgb(12,29,54)" stroke-width="1" opacity="1" d="M 44.5 94 L 45.5 96 L 44.5 94 Z " /><path fill="rgb(12,29,54)" stroke="rgb(12,29,54)" stroke-width="1" opacity="1" d="M 86.5 94 L 85.5 96 L 86.5 94 Z " /><path fill="rgb(12,29,54)" stroke="rgb(12,29,54)" stroke-width="1" opacity="1" d="M 122.5 94 L 123 105.5 L 122 105.5 L 121.5 101 L 120.5 105 L 118.5 102 Q 115.1 101.1 117 106.5 L 116 106.5 Q 114.8 101.8 117 100.5 L 115 99.5 Q 118.1 97.8 116.5 96 L 120.5 95 L 122 95.5 L 122.5 94 Z " /><path fill="rgb(12,29,54)" stroke="rgb(12,29,54)" stroke-width="1" opacity="1" d="M 22.5 97 Q 24.8 98.8 24 103.5 L 22 104.5 Q 23.1 101.2 20.5 102 L 20.5 101 L 22 101 L 22.5 97 Z " /><path fill="rgb(12,29,54)" stroke="rgb(12,29,54)" stroke-width="1" opacity="1" d="M 83 97 Q 86.8 95.5 86 98.5 Q 88.3 99.8 87 104.5 Q 84.7 105.8 87.5 107 L 89 107.5 L 86 109.5 L 87 112.5 L 86 114.5 L 89 116 Q 90 119 87 118 L 87 121 L 79 121 L 79 124.5 L 80 126.5 L 79 126.5 Q 79.8 123.9 76.5 125 L 75 124.5 Q 73.9 127.8 76.5 127 L 76.5 128 Q 73.5 127.2 75 131 L 69 131 L 69 135 L 76 134 L 79.5 128 Q 81.3 131.8 83 128.5 Q 82.3 126.3 84.5 127 L 86.5 128 L 86 126.5 Q 85.3 124.3 87.5 125 L 92 127.5 Q 91.3 131.8 94 132.5 L 94 139.5 L 93 139.5 Q 94.1 136.2 91.5 137 L 90 137.5 Q 91.9 132.1 88.5 133 L 85 134 L 85 140 L 81 140 L 79.5 136 L 77 137 L 76.5 140 Q 75.3 137.8 74 140.5 L 77 142 Q 78.1 144.7 75.5 144 Q 74.3 141.7 69.5 143 Q 67.8 145.7 61.5 144 L 57.5 142 Q 56 144.5 50.5 143 L 51 141.5 L 51.5 140 Q 53.2 142.7 59.5 141 L 59.5 140 Q 51.3 142.5 54 135 Q 58.9 136.6 57 131 L 54 129.5 Q 55.3 123.8 52 122.5 L 54 122.5 L 54 119 L 59 119 L 60.5 122 L 63.5 115 L 70.5 117 L 77 115 L 78 112.5 L 77.5 111 Q 79.8 111.8 79 109.5 L 80 106.5 L 79.5 105 L 81.5 106 L 82.5 103 Q 85.1 103.7 84 101 L 86 101 L 86 99 Q 81.9 100.3 83 97 Z M 82 131 L 79 135 L 83 134 L 82 131 Z M 61 135 Q 60 138 64 137 Q 65 134 61 135 Z " /><path fill="rgb(12,29,54)" stroke="rgb(12,29,54)" stroke-width="1" opacity="1" d="M 53.5 98 L 52.5 100 L 53.5 98 Z " /><path fill="rgb(12,29,54)" stroke="rgb(12,29,54)" stroke-width="1" opacity="1" d="M 51.5 102 L 52 104.5 L 51 104.5 L 51.5 102 Z " /><path fill="rgb(12,29,54)" stroke="rgb(12,29,54)" stroke-width="1" opacity="1" d="M 49.5 104 L 50 106.5 L 49 106.5 L 49.5 104 Z " /><path fill="rgb(12,29,54)" stroke="rgb(12,29,54)" stroke-width="1" opacity="1" d="M 74.5 105 L 78 106.5 L 76.5 106 Q 73.5 106.5 74.5 105 Z " /><path fill="rgb(12,29,54)" stroke="rgb(12,29,54)" stroke-width="1" opacity="1" d="M 71.5 106 L 71.5 109 Q 68.5 107.5 71.5 106 Z " /><path fill="rgb(12,29,54)" stroke="rgb(12,29,54)" stroke-width="1" opacity="1" d="M 18.5 108 L 19 119.5 L 18 119.5 L 18.5 108 Z " /><path fill="rgb(12,29,54)" stroke="rgb(12,29,54)" stroke-width="1" opacity="1" d="M 114.5 109 Q 119.1 107.8 117 113 Q 114.3 111.9 115 114.5 L 115 116.5 Q 116.5 124.1 113 123 L 113 110.5 L 114.5 109 Z " /><path fill="rgb(12,29,54)" stroke="rgb(12,29,54)" stroke-width="1" opacity="1" d="M 170.5 110 L 171 113.5 L 169 112.5 L 170.5 110 Z " /><path fill="rgb(12,29,54)" stroke="rgb(12,29,54)" stroke-width="1" opacity="1" d="M 22.5 111 L 25.5 112 L 27 111.5 Q 26.3 115.8 29 116.5 L 29 123.5 L 28 126.5 L 29 127.5 L 29 134 L 26.5 133 Q 24.8 136.8 23 133.5 L 23 123.5 L 22 122.5 L 24.5 122 Q 26.8 122.8 26 120.5 L 25 118.5 L 26 115 L 23 113.5 L 22.5 111 Z " /><path fill="rgb(12,29,54)" stroke="rgb(12,29,54)" stroke-width="1" opacity="1" d="M 46.5 111 L 45.5 113 L 46.5 111 Z " /><path fill="rgb(12,29,54)" stroke="rgb(12,29,54)" stroke-width="1" opacity="1" d="M 90 111 Q 93.3 109.7 92 114.5 L 90 113.5 L 90 111 Z " /><path fill="rgb(12,29,54)" stroke="rgb(12,29,54)" stroke-width="1" opacity="1" d="M 124.5 111 L 125 140.5 L 124 140.5 L 124.5 111 Z " /><path fill="rgb(12,29,54)" stroke="rgb(12,29,54)" stroke-width="1" opacity="1" d="M 140 113 Q 143.3 111.7 142 116.5 L 144.5 115 L 146 115.5 L 144 116.5 L 148 119.5 L 147.5 121 L 149 121.5 L 149 127 L 144 127 L 144 124.5 L 142 122.5 L 140 113 Z " /><path fill="rgb(12,29,54)" stroke="rgb(12,29,54)" stroke-width="1" opacity="1" d="M 48.5 116 Q 51.8 114.9 51 117.5 L 52 119.5 Q 49.3 121.3 51 127.5 L 52 132.5 L 51 139 L 48.5 140 L 48 125 Q 51.7 126.3 50 120.5 L 48 120.5 L 49 118 L 46.5 119 L 46 117 L 48.5 116 Z " /><path fill="rgb(12,29,54)" stroke="rgb(12,29,54)" stroke-width="1" opacity="1" d="M 117.5 116 L 121 122.5 L 121 126.5 L 118 124.5 Q 115.7 121.6 117.5 116 Z " /><path fill="rgb(12,29,54)" stroke="rgb(12,29,54)" stroke-width="1" opacity="1" d="M 172.5 117 Q 175.8 115.9 175 118.5 L 173.5 118 L 172.5 117 Z " /><path fill="rgb(12,29,54)" stroke="rgb(12,29,54)" stroke-width="1" opacity="1" d="M 171.5 120 L 173 122.5 L 172 122.5 L 171.5 120 Z " /><path fill="rgb(12,29,54)" stroke="rgb(12,29,54)" stroke-width="1" opacity="1" d="M 166.5 122 L 168 122 L 168 126 L 164 126 L 164 124.5 L 163.5 123 Q 165.3 126.8 167 123.5 L 166.5 122 Z " /><path fill="rgb(12,29,54)" stroke="rgb(12,29,54)" stroke-width="1" opacity="1" d="M 18.5 125 L 19 134.5 L 18 134.5 L 18.5 125 Z " /><path fill="rgb(12,29,54)" stroke="rgb(12,29,54)" stroke-width="1" opacity="1" d="M 115.5 125 L 116.5 127 Q 113.7 127.7 115.5 125 Z " /><path fill="rgb(12,29,54)" stroke="rgb(12,29,54)" stroke-width="1" opacity="1" d="M 164.5 127 L 166 130.5 L 164 129.5 L 164.5 127 Z " /><path fill="rgb(12,29,54)" stroke="rgb(12,29,54)" stroke-width="1" opacity="1" d="M 167.5 127 L 169.5 127 Q 171.8 126.3 171 128.5 Q 173.2 129.7 172 134.5 L 173.5 136 L 174 133.5 L 172 127.5 L 173.5 128 L 175 128.5 L 175 137.5 L 173.5 140 L 171.5 140 Q 169.3 139.3 170 141.5 L 171 144 L 165.5 143 Q 164.3 145.3 159.5 144 L 152 142.5 L 153 140 L 155 139.5 L 155 137.5 Q 156.1 134.2 153.5 135 L 151.5 135 Q 147.3 133.9 149 138 L 153 138.5 Q 151.8 141.3 150.5 139 L 142 139 L 142 131.5 L 144.5 128 Q 147.8 126.9 147 129.5 L 150 130.5 L 150.5 132 L 153.5 131 L 153.5 132 L 152 132.5 L 155 133 L 155.5 135 L 157.5 132 L 159 134.5 L 156 135.5 L 156 137.5 L 157.5 141 L 159.5 140 L 161 140.5 Q 160 135.5 163 134.5 Q 160.8 133.3 163.5 132 L 170 130.5 L 167.5 127 Z " /><path fill="rgb(12,29,54)" stroke="rgb(12,29,54)" stroke-width="1" opacity="1" d="M 154.5 129 L 160 129.5 L 154.5 130 L 154.5 129 Z " /><path fill="rgb(12,29,54)" stroke="rgb(12,29,54)" stroke-width="1" opacity="1" d="M 162.5 129 L 163 130.5 L 160 132.5 L 162.5 129 Z " /><path fill="rgb(12,29,54)" stroke="rgb(12,29,54)" stroke-width="1" opacity="1" d="M 118.5 131 L 120 138.5 L 118 137.5 L 118.5 131 Z " /><path fill="rgb(12,29,54)" stroke="rgb(12,29,54)" stroke-width="1" opacity="1" d="M 87.5 135 L 89 137.5 L 86 138 L 87.5 135 Z " /><path fill="rgb(12,29,54)" stroke="rgb(12,29,54)" stroke-width="1" opacity="1" d="M 23.5 136 Q 26.5 135.2 25 139 L 21 137.5 L 23.5 136 Z " /><path fill="rgb(12,29,54)" stroke="rgb(12,29,54)" stroke-width="1" opacity="1" d="M 88.5 139 L 90 142 L 92 142.5 L 86.5 143 L 87 141.5 L 88.5 139 Z " /><path fill="rgb(12,29,54)" stroke="rgb(12,29,54)" stroke-width="1" opacity="1" d="M 27.5 141 L 28.5 143 Q 25.7 143.7 27.5 141 Z " /><path fill="rgb(12,29,54)" stroke="rgb(12,29,54)" stroke-width="1" opacity="1" d="M 81.5 141 L 85 142.5 L 82.5 144 L 80 142.5 L 81.5 141 Z " /><path fill="rgb(12,29,54)" stroke="rgb(12,29,54)" stroke-width="1" opacity="1" d="M 118.5 141 L 122 142.5 L 116.5 143 L 116.5 142 L 118.5 141 Z " /><path fill="rgb(12,29,54)" stroke="rgb(12,29,54)" stroke-width="1" opacity="1" d="M 18.5 142 L 19 146 L 22 146.5 L 21.5 148 L 74 147.5 L 73 145 L 75.5 146 L 87 146.5 L 75 147.5 L 90.5 148 L 92.5 148 L 133.5 148 L 134.5 147 L 137.5 148 L 171 147.5 L 169.5 145 L 174 146.5 L 172 147.5 L 181.5 148 L 183.5 148 L 198.5 148 L 199 146 L 200.5 146 L 202 145.5 L 203 149.5 L 201.5 149 L 18.5 149 L 17.5 150 L 19 147.5 L 18 146.5 L 18.5 142 Z " /><path fill="rgb(12,29,54)" stroke="rgb(12,29,54)" stroke-width="1" opacity="1" d="M 64.5 145 Q 68.3 144 67 147 L 59 146.5 L 64.5 145 Z " /><path fill="rgb(12,29,54)" stroke="rgb(12,29,54)" stroke-width="1" opacity="1" d="M 129.5 145 L 132 145.5 L 128.5 147 L 129.5 145 Z " /><path fill="rgb(12,29,54)" stroke="rgb(12,29,54)" stroke-width="1" opacity="1" d="M 143.5 145 L 149 146.5 L 138.5 147 L 138.5 146 L 143.5 145 Z " /><path fill="rgb(12,29,54)" stroke="rgb(12,29,54)" stroke-width="1" opacity="1" d="M 23.5 146 L 26 146.5 L 23.5 147 L 23.5 146 Z " /><path fill="rgb(12,29,54)" stroke="rgb(12,29,54)" stroke-width="1" opacity="1" d="M 41.5 146 L 48 146.5 L 41.5 147 L 41.5 146 Z " /><path fill="rgb(12,29,54)" stroke="rgb(12,29,54)" stroke-width="1" opacity="1" d="M 160.5 146 L 163 146.5 L 160.5 147 L 160.5 146 Z " /><path fill="rgb(12,29,54)" stroke="rgb(12,29,54)" stroke-width="1" opacity="1" d="M 19.5 176 L 20.5 178 L 19.5 176 Z " /><path fill="rgb(12,29,54)" stroke="rgb(12,29,54)" stroke-width="1" opacity="1" d="M 25.5 179 L 82 179.5 L 25.5 180 L 25.5 179 Z " /><path fill="rgb(12,29,54)" stroke="rgb(12,29,54)" stroke-width="1" opacity="1" d="M 135.5 179 L 195 179.5 L 135.5 180 L 133.5 182 L 135.5 179 Z " /><path fill="rgb(12,29,54)" stroke="rgb(12,29,54)" stroke-width="1" opacity="1" d="M 131.5 183 L 130.5 185 L 131.5 183 Z " /><path fill="rgb(5,85,110)" stroke="rgb(5,85,110)" stroke-width="1" opacity="1" d="M 105.5 12 L 103.5 15 L 105.5 12 Z " /><path fill="rgb(5,85,110)" stroke="rgb(5,85,110)" stroke-width="1" opacity="1" d="M 114.5 17 L 115.5 19 L 114.5 17 Z " /><path fill="rgb(5,85,110)" stroke="rgb(5,85,110)" stroke-width="1" opacity="1" d="M 100.5 18 L 99.5 20 L 100.5 18 Z " /><path fill="rgb(5,85,110)" stroke="rgb(5,85,110)" stroke-width="1" opacity="1" d="M 97.5 22 L 95.5 25 L 97.5 22 Z " /><path fill="rgb(5,85,110)" stroke="rgb(5,85,110)" stroke-width="1" opacity="1" d="M 118.5 22 L 119.5 24 L 118.5 22 Z " /><path fill="rgb(5,85,110)" stroke="rgb(5,85,110)" stroke-width="1" opacity="1" d="M 121.5 26 L 122.5 28 L 121.5 26 Z " /><path fill="rgb(5,85,110)" stroke="rgb(5,85,110)" stroke-width="1" opacity="1" d="M 93.5 27 L 91.5 30 L 93.5 27 Z " /><path fill="rgb(5,85,110)" stroke="rgb(5,85,110)" stroke-width="1" opacity="1" d="M 125.5 31 L 126.5 33 L 125.5 31 Z " /><path fill="rgb(5,85,110)" stroke="rgb(5,85,110)" stroke-width="1" opacity="1" d="M 89.5 32 L 88.5 34 L 89.5 32 Z " /><path fill="rgb(5,85,110)" stroke="rgb(5,85,110)" stroke-width="1" opacity="1" d="M 128.5 35 L 129.5 37 L 128.5 35 Z " /><path fill="rgb(5,85,110)" stroke="rgb(5,85,110)" stroke-width="1" opacity="1" d="M 86.5 36 L 85.5 38 L 86.5 36 Z " /><path fill="rgb(5,85,110)" stroke="rgb(5,85,110)" stroke-width="1" opacity="1" d="M 131.5 39 L 132.5 41 L 131.5 39 Z " /><path fill="rgb(5,85,110)" stroke="rgb(5,85,110)" stroke-width="1" opacity="1" d="M 83.5 40 L 82.5 42 L 83.5 40 Z " /><path fill="rgb(5,85,110)" stroke="rgb(5,85,110)" stroke-width="1" opacity="1" d="M 134.5 43 L 135.5 45 L 134.5 43 Z " /><path fill="rgb(5,85,110)" stroke="rgb(5,85,110)" stroke-width="1" opacity="1" d="M 80.5 44 L 78.5 47 L 80.5 44 Z " /><path fill="rgb(5,85,110)" stroke="rgb(5,85,110)" stroke-width="1" opacity="1" d="M 137.5 47 L 139.5 50 L 137.5 47 Z " /><path fill="rgb(5,85,110)" stroke="rgb(5,85,110)" stroke-width="1" opacity="1" d="M 76.5 49 L 76 50.5 L 75.5 52 L 75 50.5 L 76.5 49 Z " /><path fill="rgb(5,85,110)" stroke="rgb(5,85,110)" stroke-width="1" opacity="1" d="M 31.5 68 L 32 87.5 L 31 87.5 L 31.5 68 Z " /><path fill="rgb(5,85,110)" stroke="rgb(5,85,110)" stroke-width="1" opacity="1" d="M 46.5 83 L 47 85.5 L 44 87.5 L 46.5 83 Z " /><path fill="rgb(5,85,110)" stroke="rgb(5,85,110)" stroke-width="1" opacity="1" d="M 18 150 L 61.5 150 L 62.5 151 L 65.5 150 L 67.5 150 L 175.5 150 L 176.5 151 L 177.5 150 L 202 150 L 202 171.5 L 198.5 177 L 196.5 178 L 196 175 Q 192.7 173.9 194 178 L 191.5 178 L 192 176.5 L 190.5 174 L 189 173.5 Q 193 171.5 193 165.5 L 192 165.5 L 191.5 168 L 191 164.5 Q 193.3 163.3 190.5 162 Q 189.3 164.3 188 161.5 Q 188.8 159.3 186.5 160 L 184.5 161 L 184.5 160 L 186 159.5 L 183 159 Q 181.7 155.7 186.5 157 L 188.5 157 L 192 156 L 191.5 154 Q 190.3 156.3 189 153.5 Q 189.8 151.3 187.5 152 L 186 152.5 L 186.5 151 L 182 151.5 L 182.5 153 L 180.5 152 L 177 155.5 L 178 156.5 Q 177 161.5 180 162.5 Q 177.8 163.8 180.5 165 L 185.5 164 L 185.5 165 L 183 165.5 L 186 166 Q 187.3 169.3 182.5 168 L 181 168.5 Q 183.3 167.3 180.5 166 L 178 166.5 L 179 167.5 L 177 171.5 L 179.5 174 L 185.5 175 L 186.5 174 L 190 177.5 L 183.5 178 L 181.5 177 L 178.5 178 L 179 176.5 L 178.5 174 L 176.5 174 L 171.5 173 L 170.5 175 L 176 176 Q 177.4 180 170.5 178 L 168.5 178 L 166.5 177 L 158.5 179 L 152.5 177 L 151.5 178 Q 143.3 176.3 139.5 179 L 137.5 178 L 135.5 179 L 132.5 178 L 132.5 179 Q 134.8 178.3 134 180.5 L 132.5 180 L 83 179.5 L 118 178.5 L 110.5 177 L 109.5 178 L 101.5 178 L 96.5 177 Q 95 179.5 89.5 178 L 86.5 177 Q 83.2 179.7 76.5 179 L 74.5 179 L 58.5 178 L 57.5 179 L 43.5 179 L 42.5 178 L 34.5 178 L 33 176.5 L 32.5 175 L 32 177.5 L 32.5 179 L 22.5 178 L 19 174.5 L 18 171.5 L 18 150 Z M 37 151 L 37 153 L 36 153 L 34 153 L 33 156 L 31 156 L 32 158 L 31 161 L 33 161 Q 35 162 33 164 Q 35 167 40 166 Q 41 169 37 168 Q 35 170 34 168 L 36 168 Q 37 165 33 166 L 33 168 L 32 167 L 31 170 L 33 173 L 35 172 L 36 173 L 34 174 L 42 174 L 42 172 L 44 173 L 43 172 L 46 171 L 45 169 L 47 169 L 47 165 L 45 165 L 46 163 L 45 163 L 45 161 L 43 162 L 43 161 L 41 159 Q 36 160 37 157 L 41 158 L 44 157 L 46 157 L 45 154 L 44 154 L 44 152 L 41 153 L 41 152 L 37 151 Z M 56 151 L 55 154 L 56 156 L 54 156 L 56 159 L 58 158 L 57 160 L 59 161 L 58 163 Q 59 165 61 163 L 60 165 L 60 172 L 63 172 L 63 174 Q 65 175 64 172 L 66 172 Q 65 165 68 162 L 66 162 L 69 160 L 68 159 L 71 158 L 70 156 L 71 153 L 67 154 L 67 156 Q 65 159 64 155 L 63 157 L 60 157 L 61 155 L 60 155 L 60 154 Q 59 151 58 153 L 58 152 L 56 151 Z M 69 151 L 69 152 L 71 152 L 69 151 Z M 85 151 L 86 152 L 86 153 L 84 152 Q 81 151 82 155 L 81 155 L 81 157 L 81 160 L 80 157 L 79 157 L 79 162 L 81 165 L 89 167 L 85 169 L 81 167 L 79 171 Q 80 173 82 171 L 81 173 L 83 174 L 89 175 L 91 175 L 92 173 L 92 171 L 94 172 L 93 170 L 95 170 L 94 167 L 95 164 L 94 164 L 92 162 L 91 162 L 91 161 L 86 159 L 84 160 Q 86 155 88 158 L 92 157 L 94 158 L 92 152 L 90 153 L 90 152 L 85 151 Z M 103 151 L 103 152 L 117 152 L 103 151 Z M 132 151 L 132 152 L 139 152 L 132 151 Z M 149 151 L 150 152 L 150 153 L 147 154 L 147 172 L 153 172 L 153 168 L 156 167 L 160 170 L 160 169 Q 158 167 161 166 Q 163 167 163 172 L 164 163 L 164 172 L 164 174 L 167 174 L 167 172 L 167 154 L 166 153 L 164 153 L 163 155 L 163 157 L 162 156 L 161 158 L 161 160 L 160 159 L 159 161 L 158 164 Q 155 163 157 162 L 156 161 L 156 160 L 153 155 L 152 155 L 151 153 Q 152 150 149 151 Z M 140 152 L 139 153 L 125 153 L 125 171 L 124 172 Q 125 174 127 172 L 128 173 L 126 174 L 139 174 L 140 171 L 141 173 L 141 170 L 140 170 L 139 167 L 136 168 Q 132 169 131 167 L 132 164 L 137 166 L 139 161 L 130 161 L 132 160 L 131 157 L 136 158 L 141 156 L 140 152 Z M 102 153 L 101 156 Q 102 158 107 157 L 108 160 Q 109 164 106 165 L 107 166 L 107 172 L 109 173 L 108 175 L 112 177 L 115 176 L 110 173 Q 111 170 113 172 L 113 159 L 115 159 L 117 158 Q 119 157 117 156 L 119 155 L 119 153 L 102 153 Z M 169 155 L 168 172 L 169 172 L 169 155 Z M 177 157 L 176 160 L 177 160 L 177 157 Z M 134 159 L 134 160 L 137 160 L 134 159 Z M 81 173 L 79 175 L 81 175 L 81 173 Z M 149 173 L 149 174 L 152 174 L 149 173 Z M 125 176 L 121 179 L 130 179 Q 131 175 129 176 L 129 178 L 125 176 Z " /><path fill="rgb(5,85,110)" stroke="rgb(5,85,110)" stroke-width="1" opacity="1" d="M 133.5 172 L 137 172.5 L 133.5 173 L 133.5 172 Z " /><path fill="rgb(5,85,110)" stroke="rgb(5,85,110)" stroke-width="1" opacity="1" d="M 84.5 181 L 86.5 184 L 84.5 181 Z " /><path fill="rgb(5,85,110)" stroke="rgb(5,85,110)" stroke-width="1" opacity="1" d="M 89.5 187 L 92.5 191 L 89.5 187 Z " /><path fill="rgb(5,85,110)" stroke="rgb(5,85,110)" stroke-width="1" opacity="1" d="M 126.5 188 L 119.5 196 L 126.5 188 Z " /><path fill="rgb(5,85,110)" stroke="rgb(5,85,110)" stroke-width="1" opacity="1" d="M 97.5 196 L 105.5 205 L 97.5 196 Z " /><path fill="rgb(5,85,110)" stroke="rgb(5,85,110)" stroke-width="1" opacity="1" d="M 115.5 200 L 111.5 205 L 115.5 200 Z " /><path fill="rgb(41,68,84)" stroke="rgb(41,68,84)" stroke-width="1" opacity="1" d="M 32.5 63 L 46 63.5 L 32.5 64 L 32.5 63 Z " /><path fill="rgb(41,68,84)" stroke="rgb(41,68,84)" stroke-width="1" opacity="1" d="M 53.5 63 L 60 63.5 L 53.5 64 L 53.5 63 Z " /><path fill="rgb(41,68,84)" stroke="rgb(41,68,84)" stroke-width="1" opacity="1" d="M 76.5 63 L 89 63.5 L 76.5 64 L 76.5 63 Z " /><path fill="rgb(41,68,84)" stroke="rgb(41,68,84)" stroke-width="1" opacity="1" d="M 115.5 63 L 128 63.5 L 115.5 64 L 114.5 65 L 115.5 63 Z " /><path fill="rgb(41,68,84)" stroke="rgb(41,68,84)" stroke-width="1" opacity="1" d="M 134.5 63 L 139 63.5 L 134.5 64 L 134.5 63 Z " /><path fill="rgb(41,68,84)" stroke="rgb(41,68,84)" stroke-width="1" opacity="1" d="M 175.5 63 L 188.5 63 L 190 64.5 L 189.5 140 L 189 64 L 175.5 64 L 174.5 65 L 175.5 63 Z " /><path fill="rgb(41,68,84)" stroke="rgb(41,68,84)" stroke-width="1" opacity="1" d="M 71.5 68 L 74.5 72 L 71.5 68 Z " /><path fill="rgb(41,68,84)" stroke="rgb(41,68,84)" stroke-width="1" opacity="1" d="M 52.5 75 L 53.5 77 L 52.5 75 Z " /><path fill="rgb(41,68,84)" stroke="rgb(41,68,84)" stroke-width="1" opacity="1" d="M 124.5 83 L 125 100.5 L 124 100.5 L 124.5 83 Z " /><path fill="rgb(41,68,84)" stroke="rgb(41,68,84)" stroke-width="1" opacity="1" d="M 67.5 85 L 68 89.5 L 67 89.5 L 67.5 85 Z " /><path fill="rgb(41,68,84)" stroke="rgb(41,68,84)" stroke-width="1" opacity="1" d="M 175.5 93 L 177 93.5 L 177 137.5 L 176 137.5 L 176 94.5 L 175.5 93 Z " /><path fill="rgb(41,68,84)" stroke="rgb(41,68,84)" stroke-width="1" opacity="1" d="M 76.5 100 L 75.5 102 L 76.5 100 Z " /><path fill="rgb(41,68,84)" stroke="rgb(41,68,84)" stroke-width="1" opacity="1" d="M 156.5 103 L 157.5 105 L 156.5 103 Z " /><path fill="rgb(41,68,84)" stroke="rgb(41,68,84)" stroke-width="1" opacity="1" d="M 73.5 104 L 72.5 106 L 73.5 104 Z " /><path fill="rgb(41,68,84)" stroke="rgb(41,68,84)" stroke-width="1" opacity="1" d="M 95.5 106 L 96 139.5 L 95 139.5 L 95.5 106 Z " /><path fill="rgb(41,68,84)" stroke="rgb(41,68,84)" stroke-width="1" opacity="1" d="M 124.5 107 L 125 110.5 L 124 110.5 L 124.5 107 Z " /><path fill="rgb(41,68,84)" stroke="rgb(41,68,84)" stroke-width="1" opacity="1" d="M 44.5 114 L 45 140.5 L 44 140.5 L 44.5 114 Z " /><path fill="rgb(3,78,101)" stroke="rgb(3,78,101)" stroke-width="1" opacity="1" d="M 45.5 81 L 46.5 83 L 45.5 81 Z " /><path fill="rgb(3,78,101)" stroke="rgb(3,78,101)" stroke-width="1" opacity="1" d="M 32.5 88 L 43 88.5 L 32.5 89 L 32.5 88 Z " /><path fill="rgb(3,78,101)" stroke="rgb(3,78,101)" stroke-width="1" opacity="1" d="M 18.5 149 L 201.5 149 L 203 150.5 L 202.5 170 L 202 150 L 177.5 150 L 176.5 151 L 175.5 150 L 67.5 150 L 65.5 150 L 61.5 152 L 61.5 150 L 18 150 L 18 170.5 L 17 170.5 L 17 150.5 L 18.5 149 Z " /><path fill="rgb(3,78,101)" stroke="rgb(3,78,101)" stroke-width="1" opacity="1" d="M 36.5 151 L 41 151.5 L 36.5 152 L 36.5 151 Z " /><path fill="rgb(3,78,101)" stroke="rgb(3,78,101)" stroke-width="1" opacity="1" d="M 55.5 151 Q 60.5 150.5 61 154.5 L 62.5 157 L 63.5 155 L 64.5 156 L 67 154.5 L 64 160 Q 61.3 161.1 62 158.5 L 57.5 152 Q 54.5 152.5 55.5 151 Z " /><path fill="rgb(3,78,101)" stroke="rgb(3,78,101)" stroke-width="1" opacity="1" d="M 68.5 151 L 71 151.5 L 67.5 153 L 68.5 151 Z " /><path fill="rgb(3,78,101)" stroke="rgb(3,78,101)" stroke-width="1" opacity="1" d="M 84.5 151 Q 89.9 150.1 92 152.5 L 90.5 153 Q 89.2 150.7 84.5 152 L 82 153.5 Q 81.3 151.3 83.5 152 L 84.5 151 Z " /><path fill="rgb(3,78,101)" stroke="rgb(3,78,101)" stroke-width="1" opacity="1" d="M 102.5 151 L 117 151.5 L 102.5 152 L 102.5 151 Z " /><path fill="rgb(3,78,101)" stroke="rgb(3,78,101)" stroke-width="1" opacity="1" d="M 131.5 151 Q 138.2 149.3 140 152.5 L 141 155.5 L 135.5 158 L 131 157 L 132 159.5 L 130 160 L 130 156 L 139 156 L 139 152 L 131.5 152 L 131.5 151 Z " /><path fill="rgb(3,78,101)" stroke="rgb(3,78,101)" stroke-width="1" opacity="1" d="M 148.5 151 Q 151.8 149.9 151 152.5 L 156 159.5 L 154 158.5 L 149.5 152 L 148.5 151 Z " /><path fill="rgb(3,78,101)" stroke="rgb(3,78,101)" stroke-width="1" opacity="1" d="M 165.5 151 L 167 151.5 L 164 153.5 L 157.5 163 L 156.5 161 Q 157.8 163.3 159 160.5 L 165.5 151 Z " /><path fill="rgb(3,78,101)" stroke="rgb(3,78,101)" stroke-width="1" opacity="1" d="M 182.5 151 Q 187.3 150.3 189 152.5 L 187.5 153 L 182.5 152 L 182.5 151 Z " /><path fill="rgb(3,78,101)" stroke="rgb(3,78,101)" stroke-width="1" opacity="1" d="M 34.5 152 L 33.5 154 L 34.5 152 Z " /><path fill="rgb(3,78,101)" stroke="rgb(3,78,101)" stroke-width="1" opacity="1" d="M 42.5 152 L 45 153.5 L 43.5 153 L 42.5 152 Z " /><path fill="rgb(3,78,101)" stroke="rgb(3,78,101)" stroke-width="1" opacity="1" d="M 180.5 152 L 177.5 156 L 180.5 152 Z " /><path fill="rgb(3,78,101)" stroke="rgb(3,78,101)" stroke-width="1" opacity="1" d="M 72.5 153 L 73 154.5 L 68.5 160 L 69 158.5 L 72.5 153 Z " /><path fill="rgb(3,78,101)" stroke="rgb(3,78,101)" stroke-width="1" opacity="1" d="M 100.5 153 L 102.5 156 L 108 156 L 108 158.5 L 107 158.5 Q 107.9 155.1 102.5 157 Q 98.9 155.9 100.5 153 Z " /><path fill="rgb(3,78,101)" stroke="rgb(3,78,101)" stroke-width="1" opacity="1" d="M 125.5 153 L 126 173 L 139 173.5 L 126.5 174 L 123.5 170 L 125 170.5 L 125.5 153 Z " /><path fill="rgb(3,78,101)" stroke="rgb(3,78,101)" stroke-width="1" opacity="1" d="M 147.5 153 L 148 171.5 L 147 171.5 L 147.5 153 Z " /><path fill="rgb(3,78,101)" stroke="rgb(3,78,101)" stroke-width="1" opacity="1" d="M 45.5 155 L 46 156.5 L 42.5 159 L 37 157 Q 35.7 160.3 40.5 159 L 46 162.5 L 47 168.5 L 45 171.5 L 45.5 173 L 43.5 173 L 34.5 174 L 29 169.5 L 31.5 171 Q 34.1 174.4 41.5 173 L 45 170.5 L 46 164.5 L 45 162 L 35 158.5 L 36 156 Q 41.3 155 43.5 158 L 45.5 155 Z " /><path fill="rgb(3,78,101)" stroke="rgb(3,78,101)" stroke-width="1" opacity="1" d="M 54.5 155 L 58 159.5 L 56 158.5 Q 56.7 155.9 54 157 L 54.5 155 Z " /><path fill="rgb(3,78,101)" stroke="rgb(3,78,101)" stroke-width="1" opacity="1" d="M 80.5 155 L 80 156.5 Q 79.3 162.7 83.5 164 L 90 165 L 88.5 169 L 85 168.5 L 89 166.5 L 81 165 L 79 161.5 L 79 156.5 L 80.5 155 Z " /><path fill="rgb(3,78,101)" stroke="rgb(3,78,101)" stroke-width="1" opacity="1" d="M 94.5 155 L 94 156.5 Q 94.8 158.8 92.5 158 L 90.5 158 L 86.5 157 L 85.5 159 Q 90.6 158.4 92 161.5 L 90.5 161 L 84 158.5 L 85.5 156 Q 90.1 155.4 91.5 158 L 94.5 155 Z " /><path fill="rgb(3,78,101)" stroke="rgb(3,78,101)" stroke-width="1" opacity="1" d="M 168.5 155 L 169 171.5 Q 168.5 174.5 164.5 174 Q 161 172.5 161.5 167 L 159.5 170 L 159 168.5 L 162.5 163 L 163 171.5 L 164.5 173 L 168 171.5 L 168.5 155 Z " /><path fill="rgb(3,78,101)" stroke="rgb(3,78,101)" stroke-width="1" opacity="1" d="M 112 156 L 118 156.5 L 114.5 159 L 113 158.5 L 112.5 172 L 112 156 Z " /><path fill="rgb(3,78,101)" stroke="rgb(3,78,101)" stroke-width="1" opacity="1" d="M 182.5 156 Q 188.3 155.2 190 158.5 L 188.5 159 Q 187.3 156 183 157 Q 181.8 160 185.5 159 L 188 160.5 L 186.5 161 L 181 158.5 L 182.5 156 Z " /><path fill="rgb(3,78,101)" stroke="rgb(3,78,101)" stroke-width="1" opacity="1" d="M 176.5 157 L 177 159.5 L 176 159.5 L 176.5 157 Z " /><path fill="rgb(3,78,101)" stroke="rgb(3,78,101)" stroke-width="1" opacity="1" d="M 30.5 158 L 32 160.5 L 30 159.5 L 30.5 158 Z " /><path fill="rgb(3,78,101)" stroke="rgb(3,78,101)" stroke-width="1" opacity="1" d="M 133.5 159 L 137 159.5 L 133.5 160 L 133.5 159 Z " /><path fill="rgb(3,78,101)" stroke="rgb(3,78,101)" stroke-width="1" opacity="1" d="M 58.5 161 Q 62.5 163.5 61 171.5 L 60 171.5 L 60 164.5 Q 57 163.5 58.5 161 Z " /><path fill="rgb(3,78,101)" stroke="rgb(3,78,101)" stroke-width="1" opacity="1" d="M 67.5 161 L 68 162.5 Q 64.8 165.3 65.5 172 L 65 164.5 L 67.5 161 Z " /><path fill="rgb(3,78,101)" stroke="rgb(3,78,101)" stroke-width="1" opacity="1" d="M 177.5 161 L 188 166.5 L 187 169 Q 181.5 169.8 178.5 167 L 177 167.5 L 180.5 166 Q 181.8 169 186 168 Q 187.3 165 183.5 166 Q 178.2 165 177.5 161 Z " /><path fill="rgb(3,78,101)" stroke="rgb(3,78,101)" stroke-width="1" opacity="1" d="M 189.5 161 L 191.5 164 L 189.5 161 Z " /><path fill="rgb(3,78,101)" stroke="rgb(3,78,101)" stroke-width="1" opacity="1" d="M 32.5 162 L 42 166.5 L 40.5 169 L 36.5 169 L 32.5 167 L 31 167.5 L 36 165.5 L 32.5 162 Z M 36 166 Q 35 170 40 168 Q 41 164 36 166 Z " /><path fill="rgb(3,78,101)" stroke="rgb(3,78,101)" stroke-width="1" opacity="1" d="M 93.5 162 L 95 165.5 L 94 165.5 L 93.5 162 Z " /><path fill="rgb(3,78,101)" stroke="rgb(3,78,101)" stroke-width="1" opacity="1" d="M 107.5 163 L 108 171.5 L 107 171.5 Q 108.5 166 106 164.5 L 107.5 163 Z " /><path fill="rgb(3,78,101)" stroke="rgb(3,78,101)" stroke-width="1" opacity="1" d="M 152.5 163 L 157 169.5 L 153 167.5 L 152.5 172 L 152.5 163 Z " /><path fill="rgb(3,78,101)" stroke="rgb(3,78,101)" stroke-width="1" opacity="1" d="M 131.5 164 L 132 165.5 Q 129.8 166.8 132.5 168 L 139 167 L 138.5 169 L 130 169 Q 129 165.2 131.5 164 Z " /><path fill="rgb(3,78,101)" stroke="rgb(3,78,101)" stroke-width="1" opacity="1" d="M 134.5 164 Q 138.3 163 137 166 L 134.5 164 Z " /><path fill="rgb(3,78,101)" stroke="rgb(3,78,101)" stroke-width="1" opacity="1" d="M 192.5 165 L 193 168.5 L 189 173.5 L 192 175.5 L 191 177.5 L 194 178 Q 192.7 173.9 196 175 L 196.5 178 L 198 177.5 L 196.5 179 L 170.5 179 L 170.5 178 Q 177.4 180 176 176 L 170.5 175 L 169 175.5 Q 169.5 172.5 173.5 173 L 177.5 175 L 179 173.5 L 176.5 170 Q 179.4 174.1 187.5 173 Q 191.6 170.6 192.5 165 Z M 179 174 L 179 177 L 179 178 L 182 177 L 184 178 L 190 178 L 187 174 L 186 175 L 179 174 Z " /><path fill="rgb(3,78,101)" stroke="rgb(3,78,101)" stroke-width="1" opacity="1" d="M 81.5 166 L 83 166.5 L 80.5 168 L 81.5 166 Z " /><path fill="rgb(3,78,101)" stroke="rgb(3,78,101)" stroke-width="1" opacity="1" d="M 94.5 167 L 95 169.5 L 94 172 Q 91.3 170.9 92 173.5 L 88.5 175 L 81.5 173 L 81 175 L 79 174.5 L 81 172.5 L 79.5 170 Q 81.7 174.3 89.5 173 L 94 169.5 L 94.5 167 Z " /><path fill="rgb(3,78,101)" stroke="rgb(3,78,101)" stroke-width="1" opacity="1" d="M 140.5 169 L 141 172.5 L 140 172.5 L 140.5 169 Z " /><path fill="rgb(3,78,101)" stroke="rgb(3,78,101)" stroke-width="1" opacity="1" d="M 201.5 172 L 201 173.5 L 200.5 175 L 200 173.5 L 201.5 172 Z " /><path fill="rgb(3,78,101)" stroke="rgb(3,78,101)" stroke-width="1" opacity="1" d="M 108 173 Q 112.5 172.2 114.5 175 Q 115.8 172.7 117 175.5 L 114.5 176 L 111 177.5 L 118 178.5 L 82.5 179 L 82.5 178 L 86.5 177 L 89.5 178 L 100.5 177 L 101.5 178 L 109.5 178 L 110.5 176 L 108 174.5 L 108 173 Z " /><path fill="rgb(3,78,101)" stroke="rgb(3,78,101)" stroke-width="1" opacity="1" d="M 148.5 173 L 152 173.5 L 148.5 174 L 148.5 173 Z " /><path fill="rgb(3,78,101)" stroke="rgb(3,78,101)" stroke-width="1" opacity="1" d="M 19.5 175 L 21.5 178 L 19.5 175 Z " /><path fill="rgb(3,78,101)" stroke="rgb(3,78,101)" stroke-width="1" opacity="1" d="M 32.5 175 L 34.5 178 L 43 178.5 L 33.5 179 Q 31 178 32.5 175 Z " /><path fill="rgb(3,78,101)" stroke="rgb(3,78,101)" stroke-width="1" opacity="1" d="M 122.5 175 L 123.5 177 L 125.5 177 L 128.5 178 L 128.5 176 Q 131.5 175.2 130 179 L 121 178.5 L 123 177.5 L 122.5 175 Z " /><path fill="rgb(3,78,101)" stroke="rgb(3,78,101)" stroke-width="1" opacity="1" d="M 152.5 177 L 158 178.5 L 141.5 179 L 141.5 178 L 151.5 178 L 152.5 177 Z " /><path fill="rgb(3,78,101)" stroke="rgb(3,78,101)" stroke-width="1" opacity="1" d="M 166.5 177 L 169 178.5 L 161.5 179 L 161.5 178 L 166.5 177 Z " /><path fill="rgb(3,78,101)" stroke="rgb(3,78,101)" stroke-width="1" opacity="1" d="M 24.5 178 L 27 178.5 L 24.5 179 L 24.5 178 Z " /><path fill="rgb(3,78,101)" stroke="rgb(3,78,101)" stroke-width="1" opacity="1" d="M 58.5 178 L 64 178.5 L 58.5 179 L 58.5 178 Z " /><path fill="rgb(3,78,101)" stroke="rgb(3,78,101)" stroke-width="1" opacity="1" d="M 132.5 178 Q 135.8 176.9 135 179.5 L 133.5 179 L 132.5 178 Z " /><path fill="rgb(3,78,101)" stroke="rgb(3,78,101)" stroke-width="1" opacity="1" d="M 129.5 185 L 127.5 188 L 129.5 185 Z " /><path fill="rgb(3,78,101)" stroke="rgb(3,78,101)" stroke-width="1" opacity="1" d="M 94.5 193 L 96.5 196 L 94.5 193 Z " /><path fill="rgb(3,78,101)" stroke="rgb(3,78,101)" stroke-width="1" opacity="1" d="M 117.5 198 L 116.5 200 L 117.5 198 Z " /></svg>