<?xml version="1.0" standalone="no"?>
<!DOCTYPE svg PUBLIC "-//W3C//DTD SVG 20010904//EN"
 "http://www.w3.org/TR/2001/REC-SVG-20010904/DTD/svg10.dtd">
<svg version="1.0" xmlns="http://www.w3.org/2000/svg"
 width="234.000000pt" height="216.000000pt" viewBox="0 0 234.000000 216.000000"
 preserveAspectRatio="xMidYMid meet">

<g transform="translate(0.000000,216.000000) scale(0.100000,-0.100000)"
fill="#000000" stroke="none">
<path d="M485 2131 c-27 -12 -62 -50 -74 -84 -8 -19 -11 -249 -11 -703 0 -737
-1 -720 58 -763 30 -21 30 -21 721 -21 l690 0 34 34 c19 18 37 48 41 66 10 54
7 1341 -4 1381 -5 19 -24 48 -41 65 l-30 29 -682 2 c-375 1 -691 -2 -702 -6z
m513 -85 c125 -63 152 -240 50 -333 -110 -101 -292 -49 -334 95 -17 57 -13 95
16 152 51 100 167 137 268 86z m103 -914 c0 -266 -2 -486 -5 -489 -9 -9 -121
19 -175 45 -67 31 -124 81 -157 139 -49 83 -54 123 -54 471 l0 322 196 -2 195
-3 0 -483z m195 474 c117 -31 213 -107 262 -206 l27 -55 5 -330 c3 -181 4
-340 2 -352 -3 -23 -4 -23 -198 -23 l-194 0 0 490 0 490 23 0 c12 0 45 -6 73
-14z"/>
<path d="M858 2033 c7 -3 16 -2 19 1 4 3 -2 6 -13 5 -11 0 -14 -3 -6 -6z"/>
<path d="M780 1992 c-36 -35 -60 -91 -60 -138 0 -36 49 -118 85 -143 70 -47
169 -38 220 20 l20 23 -29 -22 c-15 -12 -33 -19 -39 -15 -6 4 -22 8 -36 9 -13
2 -34 14 -46 29 -12 14 -27 25 -33 25 -7 0 -20 12 -29 27 -23 34 -26 181 -4
206 28 34 -11 17 -49 -21z"/>
<path d="M25 275 c0 -51 3 -65 15 -65 12 0 15 14 15 65 0 51 -3 65 -15 65 -12
0 -15 -14 -15 -65z"/>
<path d="M99 328 c-5 -83 -5 -118 2 -118 4 0 9 21 11 48 l3 47 14 -27 c18 -35
28 -35 43 -3 17 37 27 31 26 -15 0 -23 2 -44 6 -47 3 -4 6 24 6 60 0 37 -4 67
-10 67 -5 0 -18 -17 -28 -37 l-19 -37 -18 37 c-17 37 -34 48 -36 25z"/>
<path d="M251 273 c1 -42 4 -59 8 -44 3 13 15 25 25 27 35 5 46 14 46 37 0 31
-18 47 -52 47 -28 0 -28 0 -27 -67z m59 27 c0 -24 -26 -38 -42 -22 -16 16 -2
42 22 42 13 0 20 -7 20 -20z"/>
<path d="M360 335 c-1 -5 -4 -30 -5 -54 -4 -70 43 -103 85 -61 21 21 29 110
10 110 -5 0 -10 -20 -10 -44 0 -50 -21 -76 -48 -59 -11 6 -19 29 -23 64 -3 30
-7 50 -9 44z"/>
<path d="M490 275 l0 -65 43 2 c36 1 38 2 10 5 -27 4 -33 9 -33 29 0 20 5 24
30 24 17 0 30 5 30 10 0 6 -13 10 -30 10 -20 0 -30 5 -30 15 0 10 10 15 30 15
17 0 30 5 30 10 0 6 -18 10 -40 10 l-40 0 0 -65z"/>
<path d="M612 328 c-23 -23 -13 -45 29 -61 50 -20 48 -42 -5 -41 -41 1 -48
-13 -11 -22 16 -4 34 0 50 10 41 27 29 56 -27 70 -30 7 -38 30 -14 39 8 3 24
3 35 0 12 -3 21 -1 21 6 0 15 -63 14 -78 -1z"/>
<path d="M710 331 c0 -5 10 -11 23 -13 19 -3 22 -9 23 -51 2 -69 14 -72 14 -4
0 50 2 57 20 57 11 0 20 5 20 10 0 6 -22 10 -50 10 -27 0 -50 -4 -50 -9z"/>
<path d="M847 322 c-25 -28 -22 -87 5 -106 32 -23 54 -20 77 10 25 32 27 61 5
92 -19 27 -64 29 -87 4z m65 -9 c34 -30 18 -93 -23 -93 -19 0 -49 36 -49 57 0
14 35 53 47 53 3 0 15 -7 25 -17z"/>
<path d="M980 325 c-18 -22 -6 -42 35 -60 46 -19 41 -40 -9 -39 -42 1 -48 -11
-10 -20 17 -5 35 -1 50 9 40 26 28 55 -28 69 -30 7 -38 30 -14 39 8 3 24 3 35
0 12 -3 21 -1 21 6 0 16 -66 13 -80 -4z"/>
<path d="M1167 333 c-11 -10 -8 -123 3 -123 6 0 10 24 10 53 l0 52 30 -52 c17
-29 35 -53 40 -53 6 0 10 30 10 67 0 36 -3 63 -7 59 -4 -3 -6 -24 -5 -46 4
-52 -9 -51 -36 5 -21 44 -31 52 -45 38z"/>
<path d="M1312 284 c-24 -62 -28 -87 -9 -63 21 27 55 30 72 6 8 -11 17 -18 20
-16 7 8 -39 122 -51 126 -6 2 -21 -22 -32 -53z m42 10 c10 -26 7 -34 -15 -34
-15 0 -19 4 -15 16 3 9 6 20 6 25 0 15 17 10 24 -7z"/>
<path d="M1436 324 c-51 -50 -9 -135 59 -118 36 9 31 25 -7 17 -23 -5 -34 -2
-45 12 -32 45 1 102 52 89 20 -5 26 -4 21 5 -10 16 -62 14 -80 -5z"/>
<path d="M1555 275 c0 -51 3 -65 15 -65 12 0 15 14 15 65 0 51 -3 65 -15 65
-12 0 -15 -14 -15 -65z"/>
<path d="M1636 325 c-9 -10 -16 -33 -16 -55 0 -32 5 -43 26 -57 24 -15 29 -15
53 -2 59 33 49 121 -16 127 -18 2 -37 -3 -47 -13z m66 -12 c20 -18 23 -45 8
-74 -25 -46 -90 3 -71 54 8 21 21 33 40 36 3 1 13 -6 23 -16z"/>
<path d="M1772 273 l1 -68 6 55 6 55 30 -52 c40 -71 55 -69 55 7 0 68 -17 82
-22 18 l-3 -43 -25 44 c-39 68 -50 65 -48 -16z"/>
<path d="M1921 299 c-38 -88 -38 -106 -1 -69 25 25 34 25 60 -2 25 -27 25 -17
2 45 -28 73 -38 78 -61 26z m42 -19 c4 -15 0 -20 -14 -20 -20 0 -23 8 -13 34
7 20 20 13 27 -14z"/>
<path d="M2031 335 c-4 -16 -3 -116 0 -120 6 -5 32 -8 59 -5 20 2 19 4 -10 9
-35 6 -35 7 -41 66 -3 33 -7 56 -8 50z"/>
<path d="M2130 275 l0 -65 43 1 42 2 -35 6 c-26 4 -35 11 -35 26 0 15 8 21 33
23 44 4 41 22 -4 22 -45 0 -42 24 4 28 46 5 39 22 -8 22 l-40 0 0 -65z"/>
<path d="M2252 331 c-25 -16 -10 -53 27 -66 19 -6 36 -16 38 -22 5 -15 -32
-26 -57 -18 -11 4 -20 2 -20 -4 0 -20 49 -24 75 -7 37 25 31 44 -22 67 -45 19
-47 21 -29 35 12 8 29 11 44 7 17 -4 23 -2 18 6 -8 13 -55 15 -74 2z"/>
<path d="M711 54 c0 -11 3 -14 6 -6 3 7 2 16 -1 19 -3 4 -6 -2 -5 -13z"/>
<path d="M1260 30 c0 -5 5 -10 10 -10 6 0 10 5 10 10 0 6 -4 10 -10 10 -5 0
-10 -4 -10 -10z"/>
</g>
</svg>
